<?xml version="1.0" encoding="UTF-8" standalone="no"?>
<!-- Created with Inkscape (http://www.inkscape.org/) -->

<svg
   viewBox="-225 -200 450 400"
   version="1.1"
   id="svg1"
   inkscape:version="1.4 (e7c3feb1, 2024-10-09)"
   sodipodi:docname="floors.svg"
   xml:space="preserve"
   height="200"
   width="200"
   xmlns:inkscape="http://www.inkscape.org/namespaces/inkscape"
   xmlns:sodipodi="http://sodipodi.sourceforge.net/DTD/sodipodi-0.dtd"
   xmlns:xlink="http://www.w3.org/1999/xlink"
   xmlns="http://www.w3.org/2000/svg"
   xmlns:svg="http://www.w3.org/2000/svg"><sodipodi:namedview
     id="namedview1"
     pagecolor="#ffffff"
     bordercolor="#000000"
     borderopacity="0.25"
     inkscape:showpageshadow="2"
     inkscape:pageopacity="0.0"
     inkscape:pagecheckerboard="0"
     inkscape:deskcolor="#d1d1d1"
     inkscape:document-units="px"
     showgrid="true"
     inkscape:zoom="4.913254"
     inkscape:cx="132.39698"
     inkscape:cy="111.63681"
     inkscape:window-width="1440"
     inkscape:window-height="872"
     inkscape:window-x="0"
     inkscape:window-y="28"
     inkscape:window-maximized="0"
     inkscape:current-layer="g106"><inkscape:grid
       id="grid1"
       units="px"
       originx="0"
       originy="0"
       spacingx="0.25"
       spacingy="0.25"
       empcolor="#0099e5"
       empopacity="0.30196078"
       color="#0099e5"
       opacity="0.14901961"
       empspacing="5"
       dotted="false"
       gridanglex="30"
       gridanglez="30"
       visible="true" /><sodipodi:guide
       position="137.5,417.5"
       orientation="0,200"
       id="guide4"
       inkscape:locked="false" /><sodipodi:guide
       position="462.5,255"
       orientation="200,0"
       id="guide5"
       inkscape:locked="false" /><sodipodi:guide
       position="437.5,171.25"
       orientation="0,-200"
       id="guide6"
       inkscape:locked="false" /><sodipodi:guide
       position="37.5,277.5"
       orientation="-200,0"
       id="guide7"
       inkscape:locked="false" /><sodipodi:guide
       position="466.25,181.25"
       orientation="0,1"
       id="guide8"
       inkscape:label=""
       inkscape:locked="false"
       inkscape:color="rgb(0,134,229)" /><sodipodi:guide
       position="70,150"
       orientation="-1,0"
       id="guide9"
       inkscape:label=""
       inkscape:locked="false"
       inkscape:color="rgb(0,134,229)" /><sodipodi:guide
       position="430,50"
       orientation="-1,0"
       id="guide10"
       inkscape:label=""
       inkscape:locked="false"
       inkscape:color="rgb(0,134,229)" /><sodipodi:guide
       position="510,410"
       orientation="0,1"
       id="guide11"
       inkscape:label=""
       inkscape:locked="false"
       inkscape:color="rgb(0,134,229)" /><sodipodi:guide
       position="417.5,218.75"
       orientation="-1,0"
       id="guide12"
       inkscape:label=""
       inkscape:locked="false"
       inkscape:color="rgb(0,134,229)" /><sodipodi:guide
       position="82.5,236.25"
       orientation="-1,0"
       id="guide13"
       inkscape:label=""
       inkscape:locked="false"
       inkscape:color="rgb(0,134,229)" /><sodipodi:guide
       position="0,370"
       orientation="0,1"
       id="guide14"
       inkscape:label=""
       inkscape:locked="false"
       inkscape:color="rgb(0,134,229)" /><sodipodi:guide
       position="78.75,226.25"
       orientation="0,1"
       id="guide15"
       inkscape:label=""
       inkscape:locked="false"
       inkscape:color="rgb(0,134,229)" /><sodipodi:guide
       position="440,383.75"
       orientation="0,1"
       id="guide16"
       inkscape:label=""
       inkscape:locked="false"
       inkscape:color="rgb(0,134,229)" /><sodipodi:guide
       position="112.5,263.75"
       orientation="0,1"
       id="guide17"
       inkscape:label=""
       inkscape:locked="false"
       inkscape:color="rgb(0,134,229)" /><sodipodi:guide
       position="118.75,232.5"
       orientation="-1,0"
       id="guide18"
       inkscape:label=""
       inkscape:locked="false"
       inkscape:color="rgb(0,134,229)" /><sodipodi:guide
       position="211.25,233.75"
       orientation="-1,0"
       id="guide19"
       inkscape:label=""
       inkscape:locked="false"
       inkscape:color="rgb(0,134,229)" /><sodipodi:guide
       position="207.5,230"
       orientation="-1,0"
       id="guide20"
       inkscape:label=""
       inkscape:locked="false"
       inkscape:color="rgb(0,134,229)" /><sodipodi:guide
       position="191.25,233.75"
       orientation="-1,0"
       id="guide21"
       inkscape:label=""
       inkscape:locked="false"
       inkscape:color="rgb(0,134,229)" /><sodipodi:guide
       position="222.5,211.25"
       orientation="-1,0"
       id="guide22"
       inkscape:label=""
       inkscape:locked="false"
       inkscape:color="rgb(0,134,229)" /><sodipodi:guide
       position="277.5,212.5"
       orientation="-1,0"
       id="guide23"
       inkscape:label=""
       inkscape:locked="false"
       inkscape:color="rgb(0,134,229)" /><sodipodi:guide
       position="293.75,217.5"
       orientation="-1,0"
       id="guide24"
       inkscape:label=""
       inkscape:locked="false"
       inkscape:color="rgb(0,134,229)" /><sodipodi:guide
       position="288.75,240"
       orientation="-1,0"
       id="guide25"
       inkscape:label=""
       inkscape:locked="false"
       inkscape:color="rgb(0,134,229)" /><sodipodi:guide
       position="310,238.75"
       orientation="-1,0"
       id="guide26"
       inkscape:label=""
       inkscape:locked="false"
       inkscape:color="rgb(0,134,229)" /><sodipodi:guide
       position="381.25,233.75"
       orientation="-1,0"
       id="guide27"
       inkscape:label=""
       inkscape:locked="false"
       inkscape:color="rgb(0,134,229)" /><sodipodi:guide
       position="378.75,390"
       orientation="-1,0"
       id="guide28"
       inkscape:label=""
       inkscape:locked="false"
       inkscape:color="rgb(0,134,229)" /><sodipodi:guide
       position="437.5,396.25"
       orientation="0,1"
       id="guide29"
       inkscape:label=""
       inkscape:locked="false"
       inkscape:color="rgb(0,134,229)" /><sodipodi:guide
       position="217.5,403.75"
       orientation="-1,0"
       id="guide30"
       inkscape:label=""
       inkscape:locked="false"
       inkscape:color="rgb(0,134,229)" /><sodipodi:guide
       position="231.25,403.75"
       orientation="-1,0"
       id="guide31"
       inkscape:label=""
       inkscape:locked="false"
       inkscape:color="rgb(0,134,229)" /><sodipodi:guide
       position="282.5,405"
       orientation="-1,0"
       id="guide32"
       inkscape:label=""
       inkscape:locked="false"
       inkscape:color="rgb(0,134,229)" /><sodipodi:guide
       position="270,405"
       orientation="-1,0"
       id="guide33"
       inkscape:label=""
       inkscape:locked="false"
       inkscape:color="rgb(0,134,229)" /><sodipodi:guide
       position="121.25,391.25"
       orientation="-1,0"
       id="guide34"
       inkscape:label=""
       inkscape:locked="false"
       inkscape:color="rgb(0,134,229)" /><sodipodi:guide
       position="310,336.25"
       orientation="0,1"
       id="guide35"
       inkscape:label=""
       inkscape:locked="false"
       inkscape:color="rgb(0,134,229)" /><sodipodi:guide
       position="328.75,280"
       orientation="0,1"
       id="guide36"
       inkscape:label=""
       inkscape:locked="false"
       inkscape:color="rgb(0,134,229)" /><sodipodi:guide
       position="236.25,232.5"
       orientation="-1,0"
       id="guide37"
       inkscape:label=""
       inkscape:locked="false"
       inkscape:color="rgb(0,134,229)" /><sodipodi:guide
       position="265,237.5"
       orientation="-1,0"
       id="guide38"
       inkscape:label=""
       inkscape:locked="false"
       inkscape:color="rgb(0,134,229)" /><sodipodi:guide
       position="307.5,200"
       orientation="0,1"
       id="guide39"
       inkscape:label=""
       inkscape:locked="false"
       inkscape:color="rgb(0,134,229)" /><sodipodi:guide
       position="252.5,143.75"
       orientation="0,1"
       id="guide40"
       inkscape:label=""
       inkscape:locked="false"
       inkscape:color="rgb(0,134,229)" /><sodipodi:guide
       position="248.75,120"
       orientation="0,1"
       id="guide41"
       inkscape:label=""
       inkscape:locked="false"
       inkscape:color="rgb(0,134,229)" /><sodipodi:guide
       position="243.75,88.75"
       orientation="0,1"
       id="guide42"
       inkscape:label=""
       inkscape:locked="false"
       inkscape:color="rgb(0,134,229)" /></sodipodi:namedview><defs
     id="defs1"><rect
       x="119.44444"
       y="110.55556"
       width="55"
       height="24.444444"
       id="rect92" /><symbol
       id="AigaSymbols.svg:BaggageLockers_Inv"><title
         id="title43">Baggage Lockers</title><rect
         x="0.5"
         y="0.5"
         width="71"
         height="71"
         ry="6"
         style="stroke:#ffffff"
         id="rect43"
         rx="6" /><!-- key --><path
         d="m 34.625,11 a 7.5,7.5 0 1 0 0,7 H 37 l 2.5,-2.5 2,2 2,-2 2,2 2,-2 2,2 L 52,15 c 0.5,-0.5 0.5,-1 0,-1.5 L 49.5,11 Z M 27,14.5 a 2,2 0 1 1 -4,0 2,2 0 1 1 4,0 z"
         style="fill:#ffffff;stroke:none"
         id="path44-2" /><!-- locker --><rect
         x="16.5"
         y="26.5"
         width="39"
         height="32"
         style="fill:none;stroke:#ffffff;stroke-width:5"
         id="rect44" /><!-- bag --><path
         d="M 33.5,31.5 A 1.5,1.5 0 0 0 32,33 v 2.5 h -3 v 18 h 14.5 v -18 H 40 V 33 a 1.5,1.5 0 0 0 -1.5,-1.5 z m 0,1.5 h 5 v 2.5 h -5 z m -8,2.5 A 2.5,2.5 0 0 0 23,38 v 13 a 2.5,2.5 0 0 0 2.5,2.5 h 2 v -18 z m 19.5,0 v 18 h 1.5 A 2.5,2.5 0 0 0 49,51 V 38 a 2.5,2.5 0 0 0 -2.5,-2.5 z"
         style="fill:#ffffff;stroke:none"
         id="path45-8" /></symbol><symbol
       id="AigaSymbols.svg:ToiletsMen_Inv"><title
         id="title79">Toilets - Men</title><rect
         x="0.5"
         y="0.5"
         width="71"
         height="71"
         ry="6"
         style="stroke:#ffffff"
         id="rect79"
         rx="6" /><g
         style="fill:#ffffff;stroke:none"
         id="g79"><circle
           cx="36"
           cy="9"
           r="5"
           id="circle79" /><path
           d="m 24,22 v 15.5 a 2.25,2.25 0 0 0 4.5,0 V 23 h 1 v 39.5 a 3,3 0 0 0 6,0 V 40 h 1 v 22.5 a 3,3 0 0 0 6,0 V 23 h 1 v 14.5 a 2.25,2.25 0 0 0 4.5,0 V 22 A 7,7 0 0 0 41,15 H 31 a 7,7 0 0 0 -7,7 z"
           id="path79-4" /></g></symbol><symbol
       id="AigaSymbols.svg:ToiletsWomen_Inv"><title
         id="title81">Toilets - Women</title><rect
         x="0.5"
         y="0.5"
         width="71"
         height="71"
         ry="6"
         style="stroke:#ffffff"
         id="rect81"
         rx="6" /><g
         style="fill:#ffffff;stroke:none"
         id="g81"><circle
           cx="36"
           cy="10"
           r="5"
           id="circle81" /><path
           d="m 35.5,64 a 2.5,2.5 0 0 1 -5,0 V 47 H 24 l 7,-23.5 h -1 l -4.1,13.4 a 2.1,2.1 0 0 1 -4,-1.2 L 26.5,20.5 A 6.5,6.5 0 0 1 33,16 h 6 a 6.5,6.5 0 0 1 6.5,4.5 l 4.6,15.2 a 2.1,2.1 0 0 1 -4,1.2 L 42,23.5 H 41 L 48,47 h -6.5 v 17 a 2.5,2.5 0 0 1 -5,0 V 47 h -1 z"
           id="path81-3" /></g></symbol><symbol
       id="AigaSymbols.svg:Elevator_Inv"><title
         id="title75">Elevator</title><rect
         x="0.5"
         y="0.5"
         width="71"
         height="71"
         ry="6"
         style="stroke:#ffffff"
         id="rect75"
         rx="6" /><g
         style="fill:none;stroke:#ffffff;stroke-width:5;stroke-linecap:round;stroke-linejoin:round"
         id="g76"><!-- Arrow up --><path
           d="M 26.5,23.5 V 6.5 M 20,14 26.5,6.5 33,14"
           id="path75-6" /><!-- Arrow down --><path
           d="m 45.5,6.5 v 17 M 39,16 45.5,23.5 52,16"
           id="path76-8" /></g><rect
         x="17"
         y="28"
         width="38"
         height="38"
         ry="5"
         style="fill:#ffffff;stroke:none"
         id="rect76"
         rx="5" /><rect
         x="22"
         y="33"
         width="28"
         height="28"
         style="stroke:none"
         id="rect77" /><g
         id="person2"
         style="fill:#ffffff;stroke:none"><circle
           cx="27.5"
           cy="38.75"
           r="1.75"
           id="circle77" /><path
           d="m 24.5,41 a 1,1 0 0 0 -1,1 v 7 a 1,1 0 0 0 1,1 h 0.25 v 8.5 a 1.25,1.25 0 1 0 2.5,0 V 50 h 0.5 v 8.5 a 1.25,1.25 0 1 0 2.5,0 V 50 h 0.25 a 1,1 0 0 0 1,-1 v -7 a 1,1 0 0 0 -1,-1 z"
           id="path77-1" /></g><use
         x="8.5"
         xlink:href="#person2"
         id="use77" /><use
         x="17"
         xlink:href="#person2"
         id="use78" /></symbol><symbol
       id="AigaSymbols.svg:Shops_Inv"><title
         id="title193">Shops</title><rect
         x="0.5"
         y="0.5"
         width="71"
         height="71"
         ry="6"
         style="stroke:#ffffff"
         id="rect193"
         rx="6" /><g
         style="fill:#ffffff;stroke:none"
         id="g196"><!-- Pipe --><path
           d="m 19.5,11 v 5 c 0,1.1 1,1.5 2,1 l 13.9,-6.4 c 0.4,-0.2 0.9,0 1.1,0.4 l 1.1,2.3 c 0.2,0.4 0,0.9 -0.4,1.1 L 18,23.1 c -3.5,1.6 -7,-0.6 -7,-3.6 V 11 Z"
           id="path194" /><!-- Book --><path
           d="M 27.5,22 14,28 c -2.2,1 -3,2.4 -3,4.5 v 21 A 5.5,5.5 0 0 0 16.5,59 H 35 v -3.5 a 2,2 0 0 1 0,-4 V 26 h -7.5 z m 0.5,8 h 3 V 48 H 20 l 8,-3.5 z M 16.5,52 h 13 a 2,2 0 0 0 0,3 h -13 a 1.5,1.5 0 0 1 0,-3 z"
           id="path195" /><!-- Present --><path
           d="M 49,10.5 45,11.8 46.9,18 42.6,14.6 40,18 45,22 H 40 V 59 H 62 V 22 H 57 L 62,18 59.4,14.6 55.1,18 57,11.8 53,10.5 51,17 Z M 44,26 h 5 v 6 h -5 z m 9,0 h 5 v 6 h -5 z m -9,10 h 5 v 19 h -5 z m 9,0 h 5 v 19 h -5 z"
           id="path196" /></g></symbol><symbol
       id="AigaSymbols.svg:StairsDown_Inv"><title
         id="title65">Stairs Down</title><rect
         x="0.5"
         y="0.5"
         width="71"
         height="71"
         ry="6"
         style="stroke:#ffffff"
         id="rect65"
         rx="6" /><path
         d="m 9,56.5 h 12 v -10 h 10 v -10 h 10 v -10 h 10 v -10 h 12"
         style="fill:none;stroke:#ffffff;stroke-width:5"
         id="path66-0" /><path
         d="M 42,57 54,45 m -12,3 v 9 h 9"
         style="fill:none;stroke:#ffffff;stroke-width:4;stroke-linecap:round;stroke-linejoin:round"
         id="path67-8" /></symbol><symbol
       id="AigaSymbols.svg:StairsUp_Inv"><title
         id="title69">Stairs Up</title><rect
         x="0.5"
         y="0.5"
         width="71"
         height="71"
         ry="6"
         style="stroke:#ffffff"
         id="rect69"
         rx="6" /><path
         d="m 9,56.5 h 12 v -10 h 10 v -10 h 10 v -10 h 10 v -10 h 12"
         style="fill:none;stroke:#ffffff;stroke-width:5"
         id="path70-2" /><path
         d="M 54,45 42,57 m 12,-3 v -9 h -9"
         style="fill:none;stroke:#ffffff;stroke-width:4;stroke-linecap:round;stroke-linejoin:round"
         id="path71-0" /></symbol><symbol
       id="AigaSymbols.svg:WheelChairInv"><title
         id="title289">NPS Wheelchair Accessible - 1996</title><rect
         x="0.5"
         y="0.5"
         width="71"
         height="71"
         ry="6"
         style="stroke:#ffffff"
         id="rect289"
         rx="6" /><g
         style="fill:#ffffff;stroke:none"
         id="g291"><circle
           cx="30"
           cy="11.75"
           r="5"
           id="circle289" /><path
           d="M 51,36.5 C 50.48,35.61 49.5,35 48.5,35 H 36 L 35.8,31 H 45 a 2.25,2.25 0 0 0 0,-4.5 h -9.5 l -0.2,-4.3 c -0.18,-2.6 -2.2,-4.75 -4.9,-4.6 -2.7,0.15 -5,2.5 -4.8,5.1 L 26.45,38 c 0.2,2.6 2.45,4.5 5.05,4.5 H 48 L 54.5,54 a 2.916,2.916 0 0 0 5,-3 z"
           id="path290" /><path
           d="M 23.2,29 A 19,19 0 1 0 50.9,52.5 L 48.2,48 A 15,15 0 1 1 23.5,33.8 Z"
           id="path291" /></g></symbol><symbol
       id="AigaSymbols.svg:WheelChair_Inv"><title
         id="title293">NPS Wheelchair Accessible</title><rect
         x="0.5"
         y="0.5"
         width="71"
         height="71"
         ry="6"
         style="stroke:#ffffff"
         id="rect293"
         rx="6" /><g
         style="fill:#ffffff;stroke:none"
         id="g295"><circle
           cx="30"
           cy="11.75"
           r="5"
           id="circle293" /><path
           d="m 63.5,55.5 a 2.25,2.25 0 0 0 0,-4.5 h -4 L 51,36.5 C 50.48,35.61 49.5,35 48.5,35 H 36 L 35.8,31 H 45 a 2.25,2.25 0 0 0 0,-4.5 h -9.5 l -0.2,-4.3 c -0.18,-2.6 -2.2,-4.75 -4.9,-4.6 -2.7,0.15 -5,2.5 -4.8,5.1 L 26.45,38 c 0.2,2.6 2.45,4.5 5.05,4.5 H 48 L 54.5,54 c 0.25,0.5 1.3,1.5 2.5,1.5 z"
           id="path294" /><path
           d="M 23.2,29 A 19,19 0 1 0 50.9,52.5 L 48.2,48 A 15,15 0 1 1 23.5,33.8 Z"
           id="path295" /></g></symbol><symbol
       id="AigaSymbols.svg:FirstAid_Inv"><title
         id="title30">First Aid</title><rect
         x="0.5"
         y="0.5"
         width="71"
         height="71"
         ry="6"
         style="stroke:#ffffff"
         id="rect30"
         rx="6" /><path
         d="M 44,13 V 28 H 59 V 44 H 44 V 59 H 28 V 44 H 13 V 28 H 28 V 13 Z"
         style="fill:#ffffff;stroke:none"
         id="path31" /></symbol><symbol
       id="AigaSymbols.svg:Information_Inv"><title
         id="title126">Information</title><rect
         x="0.5"
         y="0.5"
         width="71"
         height="71"
         ry="6"
         style="stroke:#ffffff"
         id="rect127"
         rx="6" /><circle
         cx="36"
         cy="36"
         r="24"
         style="fill:none;stroke:#ffffff;stroke-width:6"
         id="circle127" /><path
         d="m 27,32 c 0,-5 1,-11 9,-11 4,0 8,3 8,7 0,4 -2,6 -4,7 -2,1 -4,2 -4,5 0,3 0,6 0,6"
         style="fill:none;stroke:#ffffff;stroke-width:6"
         id="path127" /><rect
         x="33"
         y="48"
         width="6"
         height="6"
         style="fill:#ffffff;stroke:none"
         id="rect128" /></symbol><rect
       x="119.44444"
       y="110.55556"
       width="55"
       height="24.444444"
       id="rect93" /><rect
       x="119.44444"
       y="110.55556"
       width="55"
       height="24.444444"
       id="rect94" /><rect
       x="119.44444"
       y="110.55556"
       width="55"
       height="24.444444"
       id="rect95" /><rect
       x="119.44444"
       y="110.55556"
       width="55"
       height="24.444444"
       id="rect96" /><rect
       x="119.44444"
       y="110.55556"
       width="55"
       height="24.444444"
       id="rect97" /><rect
       x="119.44444"
       y="110.55556"
       width="55"
       height="24.444444"
       id="rect98" /><rect
       x="119.44444"
       y="110.55556"
       width="55"
       height="24.444444"
       id="rect99" /><rect
       x="119.44444"
       y="110.55556"
       width="55"
       height="24.444444"
       id="rect100" /><rect
       x="119.44444"
       y="110.55556"
       width="55"
       height="24.444444"
       id="rect101" /><rect
       x="119.44444"
       y="110.55556"
       width="55"
       height="24.444444"
       id="rect102" /><rect
       x="119.44444"
       y="110.55556"
       width="55"
       height="24.444444"
       id="rect103" /><rect
       x="119.44444"
       y="110.55556"
       width="55"
       height="24.444444"
       id="rect104" /><rect
       x="119.44444"
       y="110.55556"
       width="55"
       height="24.444444"
       id="rect105" /><rect
       x="119.44444"
       y="110.55556"
       width="55"
       height="24.444444"
       id="rect106" /></defs><g
     inkscape:label="Layer 1"
     inkscape:groupmode="layer"
     id="layer1"><g
       id="g42"
       style="display:none"><g
         id="g1"
         sodipodi:insensitive="true"><image
           width="426.26086"
           height="335.47827"
           preserveAspectRatio="none"
           xlink:href="1F_framed.jpg"
           id="image1"
           x="-213.13043"
           y="-167.73914"
           style="display:inline;opacity:0.5" /></g></g><g
       id="g61"
       style="display:inline"><path
         id="path42"
         style="display:inline;fill:#ffffff;fill-opacity:1;stroke:#000000;stroke-width:5;stroke-dasharray:none;stroke-opacity:0.996656"
         d="M -212.5,-167.5 V 68.75 h 32.5 v 10 H -42.5 V 50 H 43.75 V 78.75 H 180 v -10 h 32.5 V -167.5 h -83.75 v 7.5 h -257.5 v -7.5 z m 83.75,33.75 h 257.5 V -120 H 167.5 V -13.75 H 40 l -1.25,-72.5 h -77.5 v 72.5 H -167.5 V -120 h 38.75 z" /><g
         id="g62"
         style="display:inline"><path
           style="fill:none;fill-opacity:1;stroke:#000000;stroke-width:2.5;stroke-dasharray:none;stroke-opacity:0.996656"
           d="m -167.5,-120 h 38.75 v -13.75 h 257.5 V -120 H 167.5 V -13.75 H 40 l -1.25,-72.5 h -77.5 v 72.5 H -167.5 Z"
           id="path43" /><path
           style="fill:none;fill-opacity:0.5;stroke:#000000;stroke-width:2.5;stroke-dasharray:none;stroke-opacity:0.996656"
           d="m -167.5,78.75 v -55 h 125 V 50"
           id="path44" /><path
           style="fill:none;fill-opacity:0.5;stroke:#000000;stroke-width:2.5;stroke-dasharray:none;stroke-opacity:0.996656"
           d="M 43.75,50 V 23.75 l 123.75,0.15625 0,54.84375"
           id="path45"
           sodipodi:nodetypes="cccc" /><path
           style="fill:none;fill-opacity:0.5;stroke:#000000;stroke-width:2.5;stroke-dasharray:none;stroke-opacity:0.996656"
           d="m -27.5,50 v 55 L -70,106.25 -100,120 h -20"
           id="path46" /><path
           style="fill:none;fill-opacity:0.5;stroke:#000000;stroke-width:2.5;stroke-dasharray:none;stroke-opacity:0.996656"
           d="m 27.5,50 v 55 H 70 l 30,15 h 20"
           id="path47" /><path
           style="fill:none;fill-opacity:0.5;stroke:#000000;stroke-width:2.5;stroke-dasharray:none;stroke-opacity:0.996656"
           d="M -80,161.25 V 140 l 10,-10 H 70 l 10,10 v 20"
           id="path48"
           sodipodi:nodetypes="cccccc" /><path
           style="fill:none;fill-opacity:0.5;stroke:#000000;stroke-width:1.25;stroke-dasharray:none;stroke-opacity:0.996656"
           d="m -38.75,-30 h 77.5"
           id="path49" /><path
           style="fill:none;fill-opacity:0.5;stroke:#000000;stroke-width:1.25;stroke-dasharray:none;stroke-opacity:0.996656"
           d="M -32.5,161.25 V 130"
           id="path50" /><path
           style="fill:none;fill-opacity:0.5;stroke:#000000;stroke-width:1.25;stroke-dasharray:none;stroke-opacity:0.996656"
           d="M 32.5,161.25 V 130"
           id="path51" /><path
           style="fill:none;fill-opacity:0.5;stroke:#000000;stroke-width:1.25;stroke-dasharray:none;stroke-opacity:0.996656"
           d="m -167.5,13.75 v -27.5"
           id="path52" /><path
           style="fill:none;fill-opacity:0.5;stroke:#000000;stroke-width:1.25;stroke-dasharray:none;stroke-opacity:0.996656"
           d="M -58.75,15 V -13.75"
           id="path53" /><path
           style="fill:none;fill-opacity:0.5;stroke:#000000;stroke-width:1.25;stroke-dasharray:none;stroke-opacity:0.996656"
           d="M 60,15 V -13.75"
           id="path54" /><path
           style="fill:none;fill-opacity:0.5;stroke:#000000;stroke-width:1.25;stroke-dasharray:none;stroke-opacity:0.996656"
           d="M 131.25,15 V -13.75"
           id="path55" /><path
           style="fill:none;fill-opacity:0.5;stroke:#000000;stroke-width:1.25;stroke-dasharray:none;stroke-opacity:0.996656"
           d="M 167.5,10 V -13.75"
           id="path56" /><path
           style="fill:none;fill-opacity:0.5;stroke:#000000;stroke-width:1.25;stroke-dasharray:none;stroke-opacity:0.996656"
           d="m 180,23.75 h 32.5"
           id="path57" /><path
           style="fill:none;fill-opacity:0.5;stroke:#000000;stroke-width:1.25;stroke-dasharray:none;stroke-opacity:0.996656"
           d="m -185,23.75 h -27.5"
           id="path58" /><path
           style="fill:none;fill-opacity:0.5;stroke:#000000;stroke-width:1.25;stroke-dasharray:none;stroke-opacity:0.996656"
           d="m -190,-120 h -22.5"
           id="path59" /><path
           style="fill:none;fill-opacity:0.5;stroke:#000000;stroke-width:1.25;stroke-dasharray:none;stroke-opacity:0.996656"
           d="M -167.5,-133.75 V -167.5"
           id="path60" /><path
           style="fill:none;fill-opacity:0.5;stroke:#000000;stroke-width:1.25;stroke-dasharray:none;stroke-opacity:0.996656"
           d="M 167.5,-133.75 V -167.5"
           id="path61" /><path
           style="display:inline;fill:none;fill-opacity:1;stroke:#000000;stroke-width:1.25;stroke-dasharray:none;stroke-opacity:0.996656"
           d="M -13.75,-17.5 H 15 v 43.75 h -28.75 z"
           id="path62" /><path
           style="display:inline;fill:none;fill-opacity:1;stroke:#000000;stroke-width:1.25;stroke-dasharray:none;stroke-opacity:0.996656"
           d="M 40,-13.75 V 7.5 h 20"
           id="path63" /><path
           style="fill:none;fill-opacity:1;stroke:#000000;stroke-width:1.25;stroke-dasharray:none;stroke-opacity:0.996656"
           d="M -38.75,-13.75 V 7.5 h -20"
           id="path64" /><path
           style="fill:none;fill-opacity:1;stroke:#000000;stroke-width:1.25;stroke-dasharray:none;stroke-opacity:0.996656"
           d="m -18.75,86.25 v 20"
           id="path65" /><path
           style="fill:none;fill-opacity:1;stroke:#000000;stroke-width:1.25;stroke-dasharray:none;stroke-opacity:0.996656"
           d="m 141.25,-2.5 h 17.5 v 16.25 h -17.5 z"
           id="path66" /><path
           style="fill:none;fill-opacity:1;stroke:#000000;stroke-width:1.25;stroke-dasharray:none;stroke-opacity:0.996656"
           d="m 167.5,67.5 h 11.25"
           id="path67" /><path
           style="fill:none;fill-opacity:1;stroke:#000000;stroke-width:1.25;stroke-dasharray:none;stroke-opacity:0.996656"
           d="m 167.5,-120 h 15"
           id="path68" /><path
           style="fill:none;fill-opacity:1;stroke:#000000;stroke-width:1.25;stroke-dasharray:none;stroke-opacity:0.996656"
           d="M 196.25,-120 H 212.5"
           id="path69" /><path
           style="fill:none;fill-opacity:1;stroke:#000000;stroke-width:1.25;stroke-dasharray:none;stroke-opacity:0.996656"
           d="m 167.5,-146.25 h -3.75"
           id="path70" /><path
           style="fill:none;fill-opacity:1;stroke:#000000;stroke-width:1.25;stroke-dasharray:none;stroke-opacity:0.996656"
           d="M 151.25,-146.25 H 145"
           id="path71" /><path
           style="fill:none;fill-opacity:1;stroke:#000000;stroke-width:1.25;stroke-dasharray:none;stroke-opacity:0.996656"
           d="M 147.5,-146.25 V -167.5"
           id="path72" /><path
           style="fill:none;fill-opacity:1;stroke:#000000;stroke-width:1.25;stroke-dasharray:none;stroke-opacity:0.996656"
           d="m 128.75,-160 v 13.75 h 2.5"
           id="path73" /><path
           style="fill:none;fill-opacity:1;stroke:#000000;stroke-width:1.25;stroke-dasharray:none;stroke-opacity:0.996656"
           d="m 32.5,-133.75 v -15"
           id="path74" /><path
           style="fill:none;fill-opacity:1;stroke:#000000;stroke-width:1.25;stroke-dasharray:none;stroke-opacity:0.996656"
           d="M 20,-146.25 V -160"
           id="path75" /><path
           style="fill:none;fill-opacity:1;stroke:#000000;stroke-width:1.25;stroke-dasharray:none;stroke-opacity:0.996656"
           d="M -18.75,-146.25 V -160"
           id="path76" /><path
           style="fill:none;fill-opacity:1;stroke:#000000;stroke-width:1.25;stroke-dasharray:none;stroke-opacity:0.996656"
           d="m -32.5,-133.75 v -15"
           id="path77" /><path
           style="fill:none;fill-opacity:1;stroke:#000000;stroke-width:1.25;stroke-dasharray:none;stroke-opacity:0.996656"
           d="m -128.75,-160 v 13.75 h -2.5"
           id="path78" /><path
           style="fill:none;fill-opacity:1;stroke:#000000;stroke-width:1.25;stroke-dasharray:none;stroke-opacity:0.996656"
           d="m -145,-146.25 h -5"
           id="path79" /><path
           style="fill:none;fill-opacity:1;stroke:#000000;stroke-width:1.25;stroke-dasharray:none;stroke-opacity:0.996656"
           d="M -147.5,-146.25 V -167.5"
           id="path80" /><path
           style="fill:none;fill-opacity:1;stroke:#000000;stroke-width:1.25;stroke-dasharray:none;stroke-opacity:0.996656"
           d="m -163.75,-146.25 h -3.75"
           id="path81" /><path
           style="fill:none;fill-opacity:1;stroke:#000000;stroke-width:1.25;stroke-dasharray:none;stroke-opacity:0.996656"
           d="m -175,-120 h 7.5"
           id="path82" /><path
           style="fill:none;fill-opacity:1;stroke:#000000;stroke-width:1.25;stroke-dasharray:none;stroke-opacity:0.996656"
           d="m -157.5,-2.5 h 16.25 v 16.25 h -16.25 z"
           id="path83" /><path
           style="fill:none;fill-opacity:1;stroke:#000000;stroke-width:1.25;stroke-dasharray:none;stroke-opacity:0.996656"
           d="M -131.25,12.5 V -13.75"
           id="path84" /><path
           style="fill:none;fill-opacity:1;stroke:#000000;stroke-width:1.25;stroke-dasharray:none;stroke-opacity:0.996656"
           d="M -167.5,67.5 H -180"
           id="path85" /><path
           style="fill:none;fill-opacity:1;stroke:#000000;stroke-width:1.25;stroke-dasharray:none;stroke-opacity:0.996656"
           d="m -47.5,130 v 31.25 H -65"
           id="path86"
           sodipodi:nodetypes="ccc" /><path
           style="fill:none;fill-opacity:1;stroke:#000000;stroke-width:1.25;stroke-dasharray:none;stroke-opacity:0.996656"
           d="m 47.5,130 v 31.25 h 20"
           id="path87" /><path
           style="fill:none;fill-opacity:1;stroke:#000000;stroke-width:1.25;stroke-dasharray:none;stroke-opacity:0.996656"
           d="m 60,140 v 21.25"
           id="path88" /><path
           style="fill:none;fill-opacity:1;stroke:#000000;stroke-width:1.25;stroke-dasharray:none;stroke-opacity:0.996656"
           d="M -58.75,161.25 V 140"
           id="path89" /><path
           style="fill:none;fill-opacity:1;stroke:#000000;stroke-width:1.25;stroke-dasharray:none;stroke-opacity:0.996656"
           d="m -27.5,78.75 h 5"
           id="path90" /><path
           style="fill:none;fill-opacity:1;stroke:#000000;stroke-width:1.25;stroke-dasharray:none;stroke-opacity:0.996656"
           d="m 22.5,78.75 h 5"
           id="path91" /><path
           style="display:inline;fill:none;fill-opacity:1;stroke:#000000;stroke-width:1.25;stroke-dasharray:none;stroke-opacity:0.996656"
           d="M 15,5.625 H -13.75"
           id="path92"
           sodipodi:nodetypes="cc" /><path
           style="fill:#0000ff;fill-opacity:1;stroke:#ffffff;stroke-width:11.25;stroke-dasharray:none;stroke-opacity:0.996656"
           d="M 39.375,36.5625 H 172.5"
           id="path107"
           sodipodi:nodetypes="cc" /><path
           style="fill:#0000ff;fill-opacity:1;stroke:#ffffff;stroke-width:11.25;stroke-dasharray:none;stroke-opacity:0.996656"
           d="M 140,36.5625 V 19.6875"
           id="path108" /><path
           style="fill:#0000ff;fill-opacity:1;stroke:#ffffff;stroke-width:11.25;stroke-dasharray:none;stroke-opacity:0.996656"
           d="M -172.5,33.75 H -162"
           id="path109" /><path
           style="fill:#0000ff;fill-opacity:1;stroke:#ffffff;stroke-width:11.25;stroke-dasharray:none;stroke-opacity:0.996656"
           d="m -47.5,33.75 h 9.25"
           id="path110" /><path
           style="fill:#0000ff;fill-opacity:1;stroke:#ffffff;stroke-width:11.25;stroke-dasharray:none;stroke-opacity:0.996656"
           d="M -142.5,28.125 V 19.6875"
           id="path111" /></g><g
         id="g107"><use
           xlink:href="#AigaSymbols.svg:BaggageLockers_Inv"
           style="fill:#000000;stroke:#000000"
           id="use1"
           transform="matrix(0.125,0,0,0.125,3.375,-24.3125)" /><use
           xlink:href="#AigaSymbols.svg:Information_Inv"
           style="fill:#000000;stroke:#000000"
           id="use1-26"
           transform="matrix(0.125,0,0,0.125,-36.3125,-7.09375)" /><use
           xlink:href="#AigaSymbols.svg:ToiletsMen_Inv"
           style="fill:#000000;stroke:#000000"
           id="use1-4"
           transform="matrix(0.125,0,0,0.125,-161.3125,-158.96875)" /><use
           xlink:href="#AigaSymbols.svg:ToiletsWomen_Inv"
           style="fill:#000000;stroke:#000000"
           id="use1-3"
           transform="matrix(0.125,0,0,0.125,152.4375,-160.375)" /><use
           xlink:href="#AigaSymbols.svg:Elevator_Inv"
           style="fill:#000000;stroke:#000000"
           id="use1-6"
           transform="matrix(0.125,0,0,0.125,-53.3125,-6.4375)" /><use
           xlink:href="#AigaSymbols.svg:Shops_Inv"
           style="fill:#000000;stroke:#000000"
           id="use1-0"
           transform="matrix(0.125,0,0,0.125,-66.30806,43.723525)" /><use
           xlink:href="#AigaSymbols.svg:StairsDown_Inv"
           style="fill:#000000;stroke:#000000"
           id="use1-2"
           transform="matrix(0.125,0,0,0.125,-3.875,-14.5625)" /><use
           xlink:href="#AigaSymbols.svg:StairsUp_Inv"
           style="fill:#000000;stroke:#000000"
           id="use1-5"
           transform="matrix(0.125,0,0,0.125,-3.8125,15.1875)" /><use
           xlink:href="#AigaSymbols.svg:WheelChair_Inv"
           style="fill:#000000;stroke:#000000"
           id="use1-01"
           transform="matrix(0.125,0,0,0.125,133.75,-160.84375)" /><use
           xlink:href="#AigaSymbols.svg:WheelChair_Inv"
           style="fill:#000000;stroke:#000000"
           id="use92"
           transform="matrix(0.125,0,0,0.125,-142.5625,-159.5)" /><use
           xlink:href="#AigaSymbols.svg:FirstAid_Inv"
           style="fill:#000000;stroke:#000000"
           id="use1-49"
           transform="matrix(0.125,0,0,0.125,-37.5625,39)" /></g><g
         id="g106"><text
           xml:space="preserve"
           transform="matrix(2.25,0,0,2.25,-139.79043,-209.49789)"
           id="text93"
           style="font-size:5.33333px;font-family:sans-serif;-inkscape-font-specification:sans-serif;text-align:center;writing-mode:lr-tb;direction:ltr;white-space:pre;shape-inside:url(#rect93);display:inline;fill:none;fill-opacity:1;stroke:#000000;stroke-width:0.5;stroke-dasharray:none;stroke-opacity:0.996656"><tspan
             x="143.55469"
             y="115.42045"
             id="tspan2"><tspan
               style="fill:#0000ff;stroke:none"
               id="tspan1">12</tspan></tspan></text><text
           xml:space="preserve"
           transform="matrix(2.25,0,0,2.25,-141.43699,-252.30849)"
           id="text94"
           style="font-size:5.33333px;font-family:sans-serif;-inkscape-font-specification:sans-serif;text-align:center;writing-mode:lr-tb;direction:ltr;white-space:pre;shape-inside:url(#rect94);display:inline;fill:none;fill-opacity:1;stroke:#000000;stroke-width:0.5;stroke-dasharray:none;stroke-opacity:0.996656"><tspan
             x="143.55469"
             y="115.42045"
             id="tspan4"><tspan
               style="fill:#0000ff;stroke:none"
               id="tspan3">12</tspan></tspan></text><text
           xml:space="preserve"
           transform="matrix(2.25,0,0,2.25,-141.43699,-294.70745)"
           id="text95"
           style="font-size:5.33333px;font-family:sans-serif;-inkscape-font-specification:sans-serif;text-align:center;writing-mode:lr-tb;direction:ltr;white-space:pre;shape-inside:url(#rect95);display:inline;fill:none;fill-opacity:1;stroke:#000000;stroke-width:0.5;stroke-dasharray:none;stroke-opacity:0.996656"><tspan
             x="143.55469"
             y="115.42045"
             id="tspan6"><tspan
               style="fill:#0000ff;stroke:none"
               id="tspan5">12</tspan></tspan></text><text
           xml:space="preserve"
           transform="matrix(2.25,0,0,2.25,-141.84863,-343.28102)"
           id="text96"
           style="font-size:5.33333px;font-family:sans-serif;-inkscape-font-specification:sans-serif;text-align:center;writing-mode:lr-tb;direction:ltr;white-space:pre;shape-inside:url(#rect96);display:inline;fill:none;fill-opacity:1;stroke:#000000;stroke-width:0.5;stroke-dasharray:none;stroke-opacity:0.996656"><tspan
             x="143.55469"
             y="115.42045"
             id="tspan8"><tspan
               style="fill:#0000ff;stroke:none"
               id="tspan7">12</tspan></tspan></text><text
           xml:space="preserve"
           transform="matrix(2.25,0,0,2.25,-141.84863,-398.44084)"
           id="text97"
           style="font-size:5.33333px;font-family:sans-serif;-inkscape-font-specification:sans-serif;text-align:center;writing-mode:lr-tb;direction:ltr;white-space:pre;shape-inside:url(#rect97);display:inline;fill:none;fill-opacity:1;stroke:#000000;stroke-width:0.5;stroke-dasharray:none;stroke-opacity:0.996656"><tspan
             x="143.55469"
             y="115.42045"
             id="tspan10"><tspan
               style="fill:#0000ff;stroke:none"
               id="tspan9">14</tspan></tspan></text><text
           xml:space="preserve"
           transform="matrix(2.25,0,0,2.25,-249.28678,-402.96888)"
           id="text98"
           style="font-size:5.33333px;font-family:sans-serif;-inkscape-font-specification:sans-serif;text-align:center;writing-mode:lr-tb;direction:ltr;white-space:pre;shape-inside:url(#rect98);display:inline;fill:none;fill-opacity:1;stroke:#000000;stroke-width:0.5;stroke-dasharray:none;stroke-opacity:0.996656"><tspan
             x="143.55469"
             y="115.42045"
             id="tspan12"><tspan
               style="fill:#0000ff;stroke:none"
               id="tspan11">15</tspan></tspan></text><text
           xml:space="preserve"
           transform="matrix(2.25,0,0,2.25,-410.23819,-401.73396)"
           id="text99"
           style="font-size:5.33333px;font-family:sans-serif;-inkscape-font-specification:sans-serif;text-align:center;writing-mode:lr-tb;direction:ltr;white-space:pre;shape-inside:url(#rect99);display:inline;fill:none;fill-opacity:1;stroke:#000000;stroke-width:0.5;stroke-dasharray:none;stroke-opacity:0.996656"><tspan
             x="143.55469"
             y="115.42045"
             id="tspan14"><tspan
               style="fill:#0000ff;stroke:none"
               id="tspan13">16</tspan></tspan></text><text
           xml:space="preserve"
           transform="matrix(2.25,0,0,2.25,-521.79275,-397.61756)"
           id="text100"
           style="font-size:5.33333px;font-family:sans-serif;-inkscape-font-specification:sans-serif;text-align:center;writing-mode:lr-tb;direction:ltr;white-space:pre;shape-inside:url(#rect100);display:inline;fill:none;fill-opacity:1;stroke:#000000;stroke-width:0.5;stroke-dasharray:none;stroke-opacity:0.996656"><tspan
             x="143.55469"
             y="115.42045"
             id="tspan16"><tspan
               style="fill:#0000ff;stroke:none"
               id="tspan15">17</tspan></tspan></text><text
           xml:space="preserve"
           transform="matrix(2.25,0,0,2.25,-521.38111,-305.4101)"
           id="text101"
           style="font-size:5.33333px;font-family:sans-serif;-inkscape-font-specification:sans-serif;text-align:center;writing-mode:lr-tb;direction:ltr;white-space:pre;shape-inside:url(#rect101);display:inline;fill:none;fill-opacity:1;stroke:#000000;stroke-width:0.5;stroke-dasharray:none;stroke-opacity:0.996656"><tspan
             x="143.55469"
             y="115.42045"
             id="tspan18"><tspan
               style="fill:#0000ff;stroke:none"
               id="tspan17">18</tspan></tspan></text><text
           xml:space="preserve"
           transform="matrix(2.25,0,0,2.25,-521.38111,-209.49788)"
           id="text102"
           style="font-size:5.33333px;font-family:sans-serif;-inkscape-font-specification:sans-serif;text-align:center;writing-mode:lr-tb;direction:ltr;white-space:pre;shape-inside:url(#rect102);display:inline;fill:none;fill-opacity:1;stroke:#000000;stroke-width:0.5;stroke-dasharray:none;stroke-opacity:0.996656"><tspan
             x="143.55469"
             y="115.42045"
             id="tspan20"><tspan
               style="fill:#0000ff;stroke:none"
               id="tspan19">19</tspan></tspan></text><text
           xml:space="preserve"
           transform="matrix(2.25,0,0,2.25,-444.81599,-204.14655)"
           id="text103"
           style="font-size:5.33333px;font-family:sans-serif;-inkscape-font-specification:sans-serif;text-align:center;writing-mode:lr-tb;direction:ltr;white-space:pre;shape-inside:url(#rect103);display:inline;fill:none;fill-opacity:1;stroke:#000000;stroke-width:0.5;stroke-dasharray:none;stroke-opacity:0.996656"><tspan
             x="143.55469"
             y="115.42045"
             id="tspan22"><tspan
               style="fill:#0000ff;stroke:none"
               id="tspan21">20</tspan></tspan></text><text
           xml:space="preserve"
           transform="matrix(2.25,0,0,2.25,-237.2251,-252.56468)"
           id="text104"
           style="font-size:5.33333px;font-family:sans-serif;-inkscape-font-specification:sans-serif;text-align:center;writing-mode:lr-tb;direction:ltr;white-space:pre;shape-inside:url(#rect104);display:inline;fill:none;fill-opacity:1;stroke:#000000;stroke-width:0.5;stroke-dasharray:none;stroke-opacity:0.996656"><tspan
             x="143.60677"
             y="115.42045"
             id="tspan24"><tspan
               style="fill:#0000ff;stroke:none"
               id="tspan23">T3</tspan></tspan></text><text
           xml:space="preserve"
           transform="matrix(2.25,0,0,2.25,-424.09444,-254.31112)"
           id="text105"
           style="font-size:5.33333px;font-family:sans-serif;-inkscape-font-specification:sans-serif;text-align:center;writing-mode:lr-tb;direction:ltr;white-space:pre;shape-inside:url(#rect105);display:inline;fill:none;fill-opacity:1;stroke:#000000;stroke-width:0.5;stroke-dasharray:none;stroke-opacity:0.996656"><tspan
             x="143.60677"
             y="115.42045"
             id="tspan26"><tspan
               style="fill:#0000ff;stroke:none"
               id="tspan25">T4</tspan></tspan></text><text
           xml:space="preserve"
           transform="matrix(2.25,0,0,2.25,-329.2044,-311.94372)"
           id="text106"
           style="font-size:5.33333px;font-family:sans-serif;-inkscape-font-specification:sans-serif;text-align:center;writing-mode:lr-tb;direction:ltr;white-space:pre;shape-inside:url(#rect106);display:inline;fill:none;fill-opacity:1;stroke:#000000;stroke-width:0.5;stroke-dasharray:none;stroke-opacity:0.996656"><tspan
             x="143.60677"
             y="115.42045"
             id="tspan28"><tspan
               style="fill:#0000ff;stroke:none"
               id="tspan27">T5</tspan></tspan></text><g
           id="g111"><text
             xml:space="preserve"
             id="text92"
             style="font-size:9px;font-family:sans-serif;-inkscape-font-specification:sans-serif;text-align:center;writing-mode:lr-tb;direction:ltr;white-space:pre-wrap;shape-inside:url(#rect111);display:inline;fill:none;fill-opacity:1;stroke:#000000;stroke-width:0.5;stroke-dasharray:none;stroke-opacity:0.996656"
             transform="translate(0.25708008,16.654506)"><tspan
               x="99.90332"
               y="31.960973"
               id="tspan30"><tspan
                 style="fill:#0000ff;stroke:none"
                 id="tspan29">11
</tspan></tspan><tspan
               x="96.625"
               y="43.210973"
               id="tspan32"><tspan
                 style="fill:#0000ff;stroke:none"
                 id="tspan31">彫刻</tspan></tspan></text><rect
             style="fill:#0000ff;fill-opacity:0.25;stroke:none;stroke-width:2.25;stroke-dasharray:none;stroke-opacity:0.996656"
             id="rect111"
             width="123.75"
             height="55"
             x="43.75"
             y="23.75" /></g></g></g></g></svg>
