<svg width="81" height="56" viewBox="0 0 81 56" fill="none" xmlns="http://www.w3.org/2000/svg">
<path d="M4.65246 26.5757H0.825195V54.4839H4.65246V26.5757Z" fill="#323232"/>
<path d="M4.65246 26.5757H0.825195V54.4839H4.65246V26.5757Z" fill="black" fill-opacity="0.2"/>
<path d="M53.3692 29.4455C51.198 27.391 48.8129 26.0344 45.8335 26.3089C42.4263 26.6304 38.702 29.4455 39.2725 34.1975C39.9619 40.0944 49.0744 41.945 50.1679 46.2344C50.8098 48.4065 49.5419 50.6884 47.347 51.3157C46.6973 51.5039 46.0158 51.5274 45.3502 51.3941C43.7179 50.9942 42.2995 49.9905 41.3882 48.5947L38.5039 50.9472C40.5879 53.4878 43.1711 55.1267 46.6101 55.0562C52.1568 54.9307 55.0491 49.6376 53.9318 45.3718C52.347 39.2005 43.076 37.6008 43.0047 33.2409C42.9334 31.3354 44.431 29.7278 46.3644 29.6494C46.6339 29.6416 46.9033 29.6573 47.1648 29.7121C48.5832 30.0258 49.8431 30.8257 50.7305 31.9627L53.3692 29.4455Z" fill="#323232"/>
<path d="M53.3692 29.4455C51.198 27.391 48.8129 26.0344 45.8335 26.3089C42.4263 26.6304 38.702 29.4455 39.2725 34.1975C39.9619 40.0944 49.0744 41.945 50.1679 46.2344C50.8098 48.4065 49.5419 50.6884 47.347 51.3157C46.6973 51.5039 46.0158 51.5274 45.3502 51.3941C43.7179 50.9942 42.2995 49.9905 41.3882 48.5947L38.5039 50.9472C40.5879 53.4878 43.1711 55.1267 46.6101 55.0562C52.1568 54.9307 55.0491 49.6376 53.9318 45.3718C52.347 39.2005 43.076 37.6008 43.0047 33.2409C42.9334 31.3354 44.431 29.7278 46.3644 29.6494C46.6339 29.6416 46.9033 29.6573 47.1648 29.7121C48.5832 30.0258 49.8431 30.8257 50.7305 31.9627L53.3692 29.4455Z" fill="black" fill-opacity="0.2"/>
<path d="M15.1349 0.160825L0 22.4919L3.11931 24.5623L18.2542 2.23122L15.1349 0.160825Z" fill="#323232"/>
<path d="M15.1349 0.160825L0 22.4919L3.11931 24.5623L18.2542 2.23122L15.1349 0.160825Z" fill="black" fill-opacity="0.2"/>
<path d="M70.7545 29.1791C70.8337 29.9005 70.9922 30.7474 71.0952 31.3512C71.9748 36.3149 76.8876 54.4604 76.8876 54.4604H81.0001L73.203 26.5757H68.1158L60.1919 54.4839H64.1539C64.1539 54.4839 69.0509 36.4953 70.1681 31.312C70.2791 30.7788 70.493 29.7437 70.5485 29.2105L70.7545 29.1791Z" fill="#323232"/>
<path d="M70.7545 29.1791C70.8337 29.9005 70.9922 30.7474 71.0952 31.3512C71.9748 36.3149 76.8876 54.4604 76.8876 54.4604H81.0001L73.203 26.5757H68.1158L60.1919 54.4839H64.1539C64.1539 54.4839 69.0509 36.4953 70.1681 31.312C70.2791 30.7788 70.493 29.7437 70.5485 29.2105L70.7545 29.1791Z" fill="black" fill-opacity="0.2"/>
<path d="M22.9958 26.4738C24.0338 26.4424 25.0719 26.5287 26.0941 26.7404C29.3508 27.4853 31.7597 30.1985 32.1083 33.4842C32.9007 39.5614 28.0909 42.7137 23.8833 43.5449L22.5996 40.3691C23.7089 40.2044 24.7787 39.8515 25.7692 39.334C27.663 38.2832 28.6773 36.1581 28.289 34.0488C28.0988 32.4648 27.1162 31.0768 25.682 30.3554C25.1749 30.1358 24.644 29.979 24.0972 29.9084C22.8769 29.8378 21.6487 29.8378 20.4284 29.9084C20.4998 30.2691 20.5314 30.6377 20.5235 31.0062V54.4839H16.7676V26.6463C18.3048 26.6463 22.0528 26.4738 22.9958 26.4738Z" fill="#323232"/>
<path d="M22.9958 26.4738C24.0338 26.4424 25.0719 26.5287 26.0941 26.7404C29.3508 27.4853 31.7597 30.1985 32.1083 33.4842C32.9007 39.5614 28.0909 42.7137 23.8833 43.5449L22.5996 40.3691C23.7089 40.2044 24.7787 39.8515 25.7692 39.334C27.663 38.2832 28.6773 36.1581 28.289 34.0488C28.0988 32.4648 27.1162 31.0768 25.682 30.3554C25.1749 30.1358 24.644 29.979 24.0972 29.9084C22.8769 29.8378 21.6487 29.8378 20.4284 29.9084C20.4998 30.2691 20.5314 30.6377 20.5235 31.0062V54.4839H16.7676V26.6463C18.3048 26.6463 22.0528 26.4738 22.9958 26.4738Z" fill="black" fill-opacity="0.2"/>
</svg>
