<svg xmlns="http://www.w3.org/2000/svg" width="163" height="36" fill="none" viewBox="0 0 163 36"><path fill="#000" d="M78.417 34.445h-2.732V19.682c0-.194 0-.412-.018-.654-.04-.409-.091-.816-.155-1.222a5.607 5.607 0 0 0-1.607-2.41 3.313 3.313 0 0 0-4.378 0A5.174 5.174 0 0 0 68 17.806a16.48 16.48 0 0 0-.559 4.307v12.332h-2.528V2.127L67.574 0v16.556a11.325 11.325 0 0 1 2.267-3.033 4.056 4.056 0 0 1 2.814-1.174 5.53 5.53 0 0 1 3.99 1.723 6.167 6.167 0 0 1 1.773 4.633v15.74h-.001Zm30.782-18.324-.345.19c-.309-.165-.607-.289-.86-.407a2.089 2.089 0 0 0-.911-.178c-.29.006-.575.074-.836.2a6.773 6.773 0 0 0-2.708 3.091v15.427h-2.3V14.77l2.3-2.113v4.492a12.438 12.438 0 0 1 2.391-3.752 3.302 3.302 0 0 1 2.217-1.11 2.953 2.953 0 0 1 1.053.192l-.001 3.643v-.001Zm17.013 18.323h-2.593v-3.641a9.223 9.223 0 0 1-2.552 3.112 5.05 5.05 0 0 1-3.113 1.116 4.976 4.976 0 0 1-3.305-1.377 7.212 7.212 0 0 1-1.982-5.292v-13.5l2.726-2.127v16.11a4.607 4.607 0 0 0 1.266 2.914 3.386 3.386 0 0 0 2.4.995 4.37 4.37 0 0 0 3.982-3.124c.177-.768.289-1.347.361-1.735a9.26 9.26 0 0 0 .078-1.2V14.864l2.727-2.127.005 21.707Zm19.453.001h-3.5a153.362 153.362 0 0 0-3.455-5.834 125.774 125.774 0 0 0-3.635-5.538h-.567v11.372h-2.666V2.127L134.51 0v22.1l.718.03 7.087-9.371 2.785-.009-7.435 9.114 8 12.581Zm-48.857-1.302a1.1 1.1 0 0 1-1.165-.592 3.334 3.334 0 0 1-.4-1.683V18.426a6.192 6.192 0 0 0-1.575-4.5 4.983 4.983 0 0 0-3.676-1.64 7.548 7.548 0 0 0-2.945.616 7.362 7.362 0 0 0-2.52 1.81c-.231.408-.35.87-.343 1.338.006.436.073.869.2 1.286.074 0 .26-.208.558-.627.298-.419.609-.826.882-1.23a4.152 4.152 0 0 1 3.418-1.438 3.485 3.485 0 0 1 2.6 1.882c.603 1.186.9 2.504.862 3.834 0 .29.1 6.515.1 6.948a20.92 20.92 0 0 1-.234 3.383 6.265 6.265 0 0 1-1.78 2.318 3.746 3.746 0 0 1-2.363.936 2.082 2.082 0 0 1-1.332-.457 4.035 4.035 0 0 1-1.044-1.5 6.102 6.102 0 0 1-.444-2.384 5.841 5.841 0 0 1 .729-2.906 3.566 3.566 0 0 1 2.054-1.662l3.266-.974v-1.584l-5.913 1.753a6.27 6.27 0 0 0-2.128 2.444 7.645 7.645 0 0 0-.76 3.393 7.243 7.243 0 0 0 .7 3.187c.39.736.96 1.36 1.659 1.813a4.08 4.08 0 0 0 2.084.566 5.716 5.716 0 0 0 2.948-.862 8.142 8.142 0 0 0 2.463-2.327c.06.758.373 1.473.888 2.032a2.233 2.233 0 0 0 1.6.641 3.923 3.923 0 0 0 2.092-.626v-.747l-.481.001Zm65.203 0a1.11 1.11 0 0 1-1.182-.592 3.3 3.3 0 0 1-.418-1.683V18.426a6.254 6.254 0 0 0-1.549-4.5 4.998 4.998 0 0 0-3.685-1.64 7.406 7.406 0 0 0-5.467 2.426 2.587 2.587 0 0 0-.353 1.338c.009.438.085.872.226 1.286.067 0 .245-.208.548-.627.303-.419.591-.826.874-1.23.452-.475.99-.86 1.586-1.133a4.83 4.83 0 0 1 1.848-.3 3.488 3.488 0 0 1 2.579 1.882 7.86 7.86 0 0 1 .881 3.834c0 .29.093 6.515.093 6.948a20.932 20.932 0 0 1-.239 3.383 5.985 5.985 0 0 1-1.789 2.318 3.676 3.676 0 0 1-2.315.936 2.077 2.077 0 0 1-1.368-.457 3.849 3.849 0 0 1-1.021-1.5 5.89 5.89 0 0 1-.457-2.384 5.628 5.628 0 0 1 .726-2.906 3.63 3.63 0 0 1 2.052-1.662l3.262-.974v-1.589l-5.9 1.753a6.004 6.004 0 0 0-2.129 2.444 7.223 7.223 0 0 0-.772 3.393 6.964 6.964 0 0 0 .706 3.187 4.84 4.84 0 0 0 1.652 1.813 4 4 0 0 0 2.075.566 5.78 5.78 0 0 0 2.966-.862 8.085 8.085 0 0 0 2.463-2.327c.046.76.356 1.478.876 2.032a2.263 2.263 0 0 0 1.6.641 3.9 3.9 0 0 0 2.094-.626v-.747l-.463.001ZM15.777 33.2l-.02.674a6.332 6.332 0 0 1-.84.275c-.272.061-.55.091-.83.09a2.27 2.27 0 0 1-1.39-.422 2.554 2.554 0 0 1-.85-1.47l-.122-1.28v-9.46H10.27v-.979h1.455v-2.83l1.5-1.406v4.236h2.308v.978H13.22v8.863c-.008.454.036.907.13 1.35.087.401.253.781.49 1.117.287.235.649.36 1.02.353.13 0 .29-.015.474-.03s.338-.04.439-.06m14.822.807h-1.767V13.581l1.767-1.184v21.609Zm6.149-18.766c.02.353-.067.704-.25 1.007a.75.75 0 0 1-.662.412.95.95 0 0 1-.724-.382 1.4 1.4 0 0 1-.316-.914c-.01-.346.082-.687.266-.98a.758.758 0 0 1 .667-.429.945.945 0 0 1 .73.363 1.4 1.4 0 0 1 .289.923Zm19.569 7.205-.215.12c-.2-.1-.37-.184-.533-.257a1.589 1.589 0 0 0-.563-.1 1.251 1.251 0 0 0-.533.116 4.374 4.374 0 0 0-1.688 1.951v9.726h-1.455v-13.68h1.455v2.811a8.405 8.405 0 0 1 1.5-2.358c.348-.41.843-.668 1.38-.714.082 0 .164.007.245.021.14.023.279.06.412.11l-.005 2.254ZM36.609 34.006h-1.817v-11.84l1.817-1.65v13.49Zm-27.665-.598a.712.712 0 0 1-.745-.377 2.182 2.182 0 0 1-.27-1.08v-7.962a4.024 4.024 0 0 0-1-2.882 3.154 3.154 0 0 0-2.355-1.049 4.713 4.713 0 0 0-1.883.4 4.568 4.568 0 0 0-1.6 1.152 1.66 1.66 0 0 0-.237.851c.004.281.05.56.139.827.045 0 .166-.13.36-.393.194-.262.383-.532.559-.8.281-.307.625-.55 1.008-.714.379-.14.781-.208 1.186-.2a2.232 2.232 0 0 1 1.653 1.2c.392.76.585 1.606.56 2.46 0 .184.069 4.164.069 4.46.004.724-.05 1.447-.16 2.163a4.122 4.122 0 0 1-1.14 1.473 2.35 2.35 0 0 1-1.5.6 1.36 1.36 0 0 1-.857-.3 2.353 2.353 0 0 1-.66-.944 3.9 3.9 0 0 1-.3-1.538 3.577 3.577 0 0 1 .47-1.86 2.3 2.3 0 0 1 1.32-1.06l2.082-.618v-1.019l-3.777 1.11A3.892 3.892 0 0 0 .5 28.884a4.7 4.7 0 0 0-.5 2.167 4.445 4.445 0 0 0 .457 2.04c.244.474.614.871 1.068 1.15.393.25.85.38 1.317.373.672-.007 1.33-.2 1.9-.557a5.09 5.09 0 0 0 1.572-1.485c.034.484.23.942.559 1.3a1.46 1.46 0 0 0 1.034.421 2.522 2.522 0 0 0 1.336-.408v-.477h-.3.001Zm11.443-6.456h5.911v-.863a8.152 8.152 0 0 0-1.1-4.316 3.3 3.3 0 0 0-2.889-1.81 5.224 5.224 0 0 0-1.469.217 5.598 5.598 0 0 0-1.71.9 4.743 4.743 0 0 0-1.54 2.372 11.556 11.556 0 0 0-.583 3.806c0 .14.005.35.008.608 0 .275.093.969.227 2.076a5.037 5.037 0 0 0 1.63 3.036 4.492 4.492 0 0 0 3.24 1.367 4.622 4.622 0 0 0 1.875-.391 4.898 4.898 0 0 0 1.673-1.19l.131-1.552a5.15 5.15 0 0 1-1.57 1.542 3.463 3.463 0 0 1-1.78.464h-.4c-.1-.018-.41-.075-.923-.173-.513-.098-1.035-.7-1.56-1.79a8.176 8.176 0 0 1-.79-3.6l.026-1.884h.081a7.51 7.51 0 0 1 .75-3.232 2.3 2.3 0 0 1 2.052-1.565h.33a2.066 2.066 0 0 1 1.9 1.509c.43 1.102.64 2.278.618 3.46h-3.2l-.938 1.009Zm22.363 0h5.914v-.863a8.156 8.156 0 0 0-1.1-4.316 3.313 3.313 0 0 0-2.9-1.81c-.5.002-.997.075-1.476.217-.616.2-1.193.504-1.705.9a4.75 4.75 0 0 0-1.539 2.372 11.564 11.564 0 0 0-.571 3.806c0 .14 0 .35.008.608.007.275.082.969.219 2.076a5.1 5.1 0 0 0 1.618 3.036 4.533 4.533 0 0 0 3.252 1.367 4.752 4.752 0 0 0 3.553-1.583l.145-1.553a5.214 5.214 0 0 1-1.584 1.542 3.372 3.372 0 0 1-1.785.464h-.373c-.101 0-.417-.075-.938-.173-.521-.098-1.036-.7-1.559-1.79a8.141 8.141 0 0 1-.784-3.6l.025-1.884h.072a7.494 7.494 0 0 1 .76-3.232 2.287 2.287 0 0 1 2.059-1.565h.322a2.046 2.046 0 0 1 1.9 1.509c.438 1.1.65 2.277.621 3.46h-3.193l-.961 1.012Z"></path></svg>
