<?xml version="1.0" encoding="UTF-8" standalone="no"?>
<!-- Created with Inkscape (http://www.inkscape.org/) -->

<svg
   width="187.83203"
   height="54.242188"
   viewBox="-100 -100 187.83203 54.242188"
   version="1.1"
   id="svg1"
   inkscape:version="1.4 (e7c3feb1, 2024-10-09)"
   sodipodi:docname="logo.svg"
   xmlns:inkscape="http://www.inkscape.org/namespaces/inkscape"
   xmlns:sodipodi="http://sodipodi.sourceforge.net/DTD/sodipodi-0.dtd"
   xmlns="http://www.w3.org/2000/svg"
   xmlns:svg="http://www.w3.org/2000/svg">
  <sodipodi:namedview
     id="namedview1"
     pagecolor="#ffffff"
     bordercolor="#000000"
     borderopacity="0.25"
     inkscape:showpageshadow="2"
     inkscape:pageopacity="0.0"
     inkscape:pagecheckerboard="0"
     inkscape:deskcolor="#d1d1d1"
     inkscape:document-units="px"
     showgrid="true"
     inkscape:zoom="0.91625"
     inkscape:cx="-1.6371078"
     inkscape:cy="61.664393"
     inkscape:window-width="1440"
     inkscape:window-height="872"
     inkscape:window-x="0"
     inkscape:window-y="28"
     inkscape:window-maximized="0"
     inkscape:current-layer="layer1">
    <inkscape:grid
       id="grid1"
       units="mm"
       originx="-133"
       originy="-133.98047"
       spacingx="0.99999998"
       spacingy="1"
       empcolor="#0099e5"
       empopacity="0.30196078"
       color="#0099e5"
       opacity="0.14901961"
       empspacing="5"
       dotted="false"
       gridanglex="30"
       gridanglez="30"
       visible="true" />
  </sodipodi:namedview>
  <defs
     id="defs1" />
  <g
     inkscape:label="Layer 1"
     inkscape:groupmode="layer"
     id="layer1"
     transform="translate(-133,-133.98047)">
    <g
       id="g2571"
       style="display:inline">
      <path
         fill-rule="nonzero"
         fill="#231f20"
         fill-opacity="1"
         d="m 59.960938,58.28125 -14.609376,4.933594 14.605469,21.082031 z m 0,0"
         id="path2516" />
      <path
         fill-rule="nonzero"
         fill="#444041"
         fill-opacity="1"
         d="M 59.960938,58.28125 75.058594,38.027344 74.890625,62.824219 Z m 0,0"
         id="path2517" />
      <path
         fill-rule="nonzero"
         fill="#444041"
         fill-opacity="1"
         d="m 75.554688,39.226562 c 1.449218,0 2.625,-1.171874 2.625,-2.621093 0,-1.449219 -1.175782,-2.625 -2.625,-2.625 -1.449219,0 -2.625,1.175781 -2.625,2.625 0,1.449219 1.175781,2.621093 2.625,2.621093"
         id="path2518" />
      <path
         fill-rule="nonzero"
         fill="#868484"
         fill-opacity="1"
         d="m 59.960938,58.28125 -0.0039,15.03125 24.109375,-7.699219 z m 0,0"
         id="path2519" />
      <path
         fill-rule="nonzero"
         fill="#868484"
         fill-opacity="1"
         d="m 85.714844,68.074219 c 1.445312,0 2.621094,-1.175781 2.621094,-2.625 0,-1.449219 -1.175782,-2.621094 -2.621094,-2.621094 -1.453125,0 -2.628906,1.171875 -2.628906,2.621094 0,1.449219 1.175781,2.625 2.628906,2.625"
         id="path2520" />
      <path
         fill-rule="nonzero"
         fill="#231f20"
         fill-opacity="1"
         d="m 60.460938,87.707031 c 1.449218,0 2.625,-1.175781 2.625,-2.621093 0,-1.453126 -1.175782,-2.628907 -2.625,-2.628907 -1.449219,0 -2.625,1.175781 -2.625,2.628907 0,1.445312 1.175781,2.621093 2.625,2.621093"
         id="path2521" />
      <path
         fill-rule="nonzero"
         fill="#c8c7c8"
         fill-opacity="1"
         d="m 51.257812,46.25 8.703126,12.03125 -23.222657,7.835938 z m 0,0"
         id="path2522" />
      <path
         fill-rule="nonzero"
         fill="#c8c7c8"
         fill-opacity="1"
         d="m 35.625,69.773438 c 1.449219,0 2.625,-1.171876 2.625,-2.621094 0,-1.449219 -1.175781,-2.625 -2.625,-2.625 -1.449219,0 -2.625,1.175781 -2.625,2.625 0,1.449218 1.175781,2.621094 2.625,2.621094"
         id="path2523" />
      <path
         fill-rule="nonzero"
         fill="#a7a6a6"
         fill-opacity="1"
         d="m 45.777344,38.660156 14.183594,19.621094 9.03125,-12.113281 z m 0,0"
         id="path2524" />
      <path
         fill-rule="nonzero"
         fill="#a7a6a6"
         fill-opacity="1"
         d="m 44.582031,40.398438 c 1.449219,0 2.625,-1.175782 2.625,-2.625 0,-1.449219 -1.175781,-2.625 -2.625,-2.625 -1.449219,0 -2.625,1.175781 -2.625,2.625 0,1.449218 1.175781,2.625 2.625,2.625"
         id="path2525" />
      <path
         fill-rule="nonzero"
         fill="#231f20"
         fill-opacity="1"
         d="m 97.203125,39.203125 c -0.28125,0 -0.59375,0.03516 -0.835937,0.105469 0,0.472656 0.01562,0.953125 0.04297,1.269531 0.421875,-0.40625 0.800782,-0.886719 1.066406,-1.359375 -0.113281,-0.01563 -0.179687,-0.01563 -0.273437,-0.01563 m -2.757813,1.996094 c 0,0.304687 0.109376,0.457031 0.332032,0.457031 0.183594,0 0.355468,-0.07422 0.679687,-0.289062 -0.06641,-0.441407 -0.101562,-1.070313 -0.101562,-1.667969 -0.570313,0.359375 -0.910157,0.917969 -0.910157,1.5 m 1.101563,-4.265625 c 0.01172,-0.148438 0.06641,-0.523438 0.101563,-0.796875 l 1.042968,0.08984 -0.0078,0.05078 c -0.06641,0.492187 -0.06641,0.523437 -0.08203,0.65625 h 2.914063 v 0.917968 H 96.5 l -0.0078,0.05078 -0.01563,0.15625 -0.01562,0.191406 c -0.01172,0.109375 -0.01172,0.132812 -0.01953,0.230469 0.308594,-0.03906 0.53125,-0.05469 0.730469,-0.05469 1.640625,0 2.714844,0.828125 2.714844,2.109375 0,0.730469 -0.347657,1.359375 -0.976563,1.726563 -0.386718,0.230469 -0.886718,0.410156 -1.523437,0.535156 l -0.453125,-0.8125 c 1.324218,-0.261719 1.902344,-0.71875 1.902344,-1.507813 0,-0.371093 -0.179688,-0.734374 -0.457032,-0.941406 -0.59375,0.992188 -1.289062,1.746094 -2.152344,2.359375 C 95.597656,42.335938 95.167969,42.5 94.636719,42.5 c -0.738281,0 -1.144531,-0.441406 -1.144531,-1.265625 0,-1.070313 0.699218,-1.996094 1.898437,-2.496094 0.01563,-0.238281 0.03516,-0.539062 0.06641,-0.886719 h -1.65625 v -0.917968 z m 0,0"
         id="path2526" />
      <path
         fill-rule="nonzero"
         fill="#231f20"
         fill-opacity="1"
         d="m 108.17188,36.425781 0.50781,0.691407 -0.28125,0.15625 -0.73828,0.390624 c -0.41407,0.222657 -0.67969,0.363282 -1.17188,0.636719 l -0.48437,0.257813 0.37109,-0.01172 c 1.59766,-0.07422 2.19531,-0.105469 3.05859,-0.15625 l 0.0781,1.003906 -1.29688,0.05859 c -0.36718,0.01563 -0.95312,0.132813 -1.26171,0.261719 -0.76172,0.300781 -1.16797,0.730468 -1.16797,1.246094 0,0.320312 0.1914,0.535156 0.58203,0.675781 0.33203,0.109375 0.87109,0.160156 1.80469,0.160156 v 1.019531 c -1.08594,0 -1.91407,-0.101562 -2.38672,-0.300781 -0.70313,-0.304687 -1.06641,-0.792969 -1.06641,-1.433594 0,-0.761719 0.45313,-1.28125 1.42188,-1.621093 -0.6836,0.01562 -1.76172,0.07422 -2.9961,0.164062 l -0.0586,-0.992188 h 0.082 l 0.35547,-0.0078 0.35156,-0.0039 0.35547,-0.0078 h 0.11328 c 0.91406,-0.535156 1.78125,-1.007812 2.41016,-1.316406 h -2.73047 v -0.871094 z m 0,0"
         id="path2527" />
      <path
         fill-rule="nonzero"
         fill="#231f20"
         fill-opacity="1"
         d="m 119.60547,37.316406 c -0.16797,-0.410156 -0.41406,-0.863281 -0.6875,-1.269531 l 0.57031,-0.191406 c 0.25,0.308593 0.51172,0.753906 0.69531,1.195312 z m -1.05469,0.246094 c -0.17187,-0.421875 -0.4375,-0.894531 -0.70312,-1.257812 l 0.59765,-0.214844 c 0.25,0.347656 0.51172,0.800781 0.70313,1.238281 z m -5.55859,-0.175781 c 0.98047,-0.222657 1.92969,-0.546875 2.84375,-0.976563 l 0.6875,0.8125 c -1.31641,1.011719 -1.96485,2.023438 -1.96485,3.089844 0,0.996094 0.48047,1.507812 1.41797,1.507812 0.4961,0 0.85938,-0.164062 1.17578,-0.523437 0.31641,-0.363281 0.46485,-0.894531 0.46485,-1.664063 0,-0.660156 -0.15235,-1.390624 -0.39063,-1.839843 l 0.78125,-0.464844 c 0.5586,0.757813 1.32422,1.5 1.97657,1.90625 l -0.54688,0.90625 c -0.51172,-0.480469 -0.90234,-0.972656 -1.21484,-1.519531 0.22265,0.640625 0.30468,1.039062 0.30468,1.527344 0,1.753906 -0.89453,2.699218 -2.55078,2.699218 -0.83593,0 -1.51562,-0.28125 -1.90625,-0.792968 -0.33984,-0.441407 -0.51172,-0.988282 -0.51172,-1.640626 0,-0.960937 0.5625,-2.03125 1.48829,-2.835937 -0.53907,0.324219 -1.10157,0.566406 -1.76563,0.769531 z m 0,0"
         id="path2528" />
      <path
         fill-rule="nonzero"
         fill="#231f20"
         fill-opacity="1"
         d="m 125.24609,37.820312 c -0.65625,0.519532 -1.01953,1.28125 -1.01953,2.144532 0,0.6875 0.25782,1.269531 0.55469,1.269531 0.16406,0 0.32422,-0.183594 0.53906,-0.605469 0.46875,-0.902344 0.7461,-1.898437 0.91797,-3.222656 -0.42187,0.07422 -0.70312,0.191406 -0.99219,0.414062 m 1.5,3.976563 c 1.42969,-0.339844 2.10938,-1.085937 2.10938,-2.296875 0,-0.578125 -0.17969,-1.101562 -0.48828,-1.464844 -0.28125,-0.324218 -0.59766,-0.496094 -1.11719,-0.597656 -0.19922,1.605469 -0.48828,2.644531 -1.01172,3.679688 -0.20703,0.40625 -0.35547,0.621093 -0.57812,0.828124 -0.28125,0.257813 -0.58985,0.398438 -0.91016,0.398438 -0.87891,0 -1.58594,-1.0625 -1.58594,-2.378906 0,-1.136719 0.52344,-2.171875 1.45313,-2.863282 0.60937,-0.441406 1.3164,-0.664062 2.1289,-0.664062 1.89453,0 3.19532,1.242188 3.19532,3.046875 0,1.683594 -0.88672,2.757813 -2.66797,3.222656 z m 0,0"
         id="path2529" />
      <path
         fill-rule="nonzero"
         fill="#231f20"
         fill-opacity="1"
         d="m 139.49219,39.152344 c -0.51172,-0.570313 -1.30078,-1.273438 -1.91016,-1.691406 l 0.62109,-0.660157 c 0.57813,0.355469 1.44141,1.078125 1.92969,1.605469 z m -2.20313,1.980468 c -0.22265,-0.09766 -0.47265,-0.148437 -0.74609,-0.148437 -0.44531,0 -0.73438,0.191406 -0.73438,0.488281 0,0.289063 0.32813,0.488282 0.79297,0.488282 0.42188,0 0.67188,-0.289063 0.6875,-0.792969 z m 1.07031,-2.476562 v 1.863281 c 0.62891,0.296875 1.1836,0.613281 1.67969,0.960938 l -0.52734,0.871093 c -0.41016,-0.308593 -0.78125,-0.554687 -1.16797,-0.769531 -0.11719,0.808594 -0.71484,1.234375 -1.70313,1.234375 -1.05078,0 -1.76171,-0.539062 -1.76171,-1.335937 0,-0.792969 0.76171,-1.359375 1.82421,-1.359375 0.1875,0 0.33985,0.01563 0.58594,0.05078 V 38.65625 Z m -3.48828,-1.5 c 0.11328,-0.371094 0.17188,-0.605469 0.26563,-1.019531 l 1.02734,0.109375 c -0.10937,0.40625 -0.14062,0.519531 -0.26562,0.910156 h 1.19922 v 0.953125 h -1.51563 c -0.45312,1.257813 -0.95312,2.261719 -1.53125,3.082031 l -0.86328,-0.480468 c 0.52344,-0.777344 0.98047,-1.65625 1.35156,-2.601563 h -1.07422 V 37.15625 Z m 0,0"
         id="path2530" />
      <path
         fill-rule="nonzero"
         fill="#231f20"
         fill-opacity="1"
         d="m 149.17578,40.453125 c -0.29687,-1.136719 -0.8125,-2.386719 -1.34766,-3.222656 l 0.92579,-0.445313 c 0.58984,0.933594 1.11718,2.109375 1.4414,3.214844 z M 144.93359,37.5625 c 0.0781,-0.40625 0.11719,-0.644531 0.21875,-1.300781 l 0.0156,-0.101563 1.05859,0.125 c -0.082,0.492188 -0.13281,0.746094 -0.23828,1.277344 h 0.46484 c 1.11719,0 1.55469,0.464844 1.55469,1.664062 0,0.835938 -0.1914,2.089844 -0.41406,2.703126 -0.1875,0.511718 -0.50391,0.753906 -0.97656,0.753906 -0.39063,0 -0.80469,-0.109375 -1.31641,-0.347656 l 0.0742,-0.980469 c 0.38672,0.175781 0.8125,0.308593 1.00781,0.308593 0.11719,0 0.17578,-0.05078 0.23438,-0.199218 0.19922,-0.546875 0.35547,-1.523438 0.35547,-2.285156 0,-0.546876 -0.10938,-0.664063 -0.60547,-0.664063 h -0.58594 c -0.41406,1.691406 -0.9375,3.097656 -1.56641,4.175781 l -0.96093,-0.539062 c 0.61328,-1.035156 1.20312,-2.484375 1.47656,-3.636719 h -1.30469 V 37.5625 Z m 0,0"
         id="path2531" />
      <path
         fill-rule="nonzero"
         fill="#231f20"
         fill-opacity="1"
         d="m 159.125,37.945312 h -3.52734 v -1.011718 h 3.52734 z m 0.27344,4.398438 c -0.4961,0.06641 -1.14453,0.113281 -1.75782,0.113281 -0.73437,0 -1.35546,-0.09766 -1.73828,-0.28125 -0.51953,-0.238281 -0.82031,-0.710937 -0.82031,-1.289062 0,-0.433594 0.125,-0.828125 0.37109,-1.144531 l 0.87891,0.378906 c -0.14062,0.21875 -0.20703,0.425781 -0.20703,0.632812 0,0.222656 0.0859,0.378906 0.27344,0.46875 0.25781,0.125 0.71484,0.199219 1.26172,0.199219 0.48046,0 1.20703,-0.05469 1.64453,-0.113281 z m -5.98047,0.421875 c -0.10938,-0.910156 -0.14844,-1.535156 -0.14844,-2.5 0,-1.417969 0.0977,-2.652344 0.30469,-3.96875 l 1.01953,0.105469 c -0.19922,1.226562 -0.28125,2.226562 -0.28125,3.53125 0,0.984375 0.0508,1.804687 0.17187,2.707031 z m 0,0"
         id="path2532" />
      <path
         fill-rule="nonzero"
         fill="#231f20"
         fill-opacity="1"
         d="m 163.70703,42.980469 c -0.44141,-0.703125 -1.0625,-1.507813 -1.53125,-1.996094 l 0.76953,-0.671875 c 0.55469,0.554688 1.17578,1.316406 1.58985,1.949219 z m 0,0"
         id="path2533" />
      <path
         fill-rule="nonzero"
         fill="#231f20"
         fill-opacity="1"
         d="m 173.42187,39.808594 c 0.64844,0.710937 1.5,1.308594 2.53516,1.78125 L 175.35547,42.5 c -0.95313,-0.496094 -1.75,-1.183594 -2.45313,-2.105469 v 2.636719 h -1.07812 v -2.542969 c -0.61328,0.875 -1.47266,1.628907 -2.40235,2.113281 l -0.59765,-0.855468 c 0.9375,-0.414063 1.78906,-1.066406 2.51172,-1.9375 h -2.41407 v -0.9375 h 2.90235 v -1 h -2.3125 v -0.945313 h 2.3125 v -0.914062 h 1.07812 v 0.914062 h 2.35938 v 0.945313 h -2.35938 v 1 h 2.94922 v 0.9375 z m 0,0"
         id="path2534" />
      <path
         fill-rule="nonzero"
         fill="#231f20"
         fill-opacity="1"
         d="m 183.23047,37.769531 v 1.449219 h 0.55469 c 0.19921,-0.414062 0.39843,-0.9375 0.54687,-1.449219 z m -2.17969,0 c 0.19922,0.324219 0.39844,0.769531 0.52344,1.183594 l -0.8125,0.265625 h 1.43359 v -1.449219 z m 2.80078,2.351563 c 0.65625,0.632812 1.47656,1.167968 2.45313,1.566406 l -0.58203,0.902344 c -0.94141,-0.453125 -1.8125,-1.160156 -2.47657,-2.035156 v 2.476562 h -1.0664 v -2.394531 c -0.63282,0.871093 -1.46875,1.589843 -2.41016,2.0625 l -0.59766,-0.863281 c 0.91016,-0.371094 1.73829,-0.953126 2.41797,-1.714844 h -2.32031 V 39.21875 h 1.29297 c -0.0898,-0.339844 -0.29688,-0.835938 -0.48047,-1.140625 l 0.79688,-0.308594 h -1.35157 v -0.910156 h 2.65235 v -0.847656 h 1.0664 v 0.847656 h 2.70313 v 0.910156 h -1.50781 l 0.94921,0.339844 c -0.21093,0.449219 -0.36328,0.746094 -0.59375,1.109375 h 1.41016 v 0.902344 z m 0,0"
         id="path2535" />
      <path
         fill-rule="nonzero"
         fill="#231f20"
         fill-opacity="1"
         d="m 196.17969,37.4375 c -0.16797,-0.429688 -0.44141,-0.933594 -0.73828,-1.355469 l 0.55468,-0.199219 c 0.29688,0.332032 0.53125,0.734376 0.7461,1.265626 z m -0.56641,3.570312 c -0.23047,-0.941406 -0.66797,-2.011718 -1.15234,-2.839843 l 0.92968,-0.390625 c 0.51563,0.8125 0.95313,1.796875 1.24219,2.808594 z m -0.46875,-3.335937 C 195,37.273438 194.72656,36.785156 194.39844,36.335938 l 0.58593,-0.230469 c 0.32422,0.445312 0.56641,0.867187 0.75391,1.308593 z M 191.23047,37.5625 c 0.0937,-0.464844 0.16015,-0.878906 0.24219,-1.40625 l 1.05078,0.128906 c -0.0625,0.402344 -0.1211,0.746094 -0.23047,1.277344 h 0.41406 c 1.10938,0 1.54297,0.457031 1.54297,1.617188 0,0.902343 -0.21094,2.253906 -0.44141,2.832031 -0.18359,0.464843 -0.48828,0.671875 -0.96875,0.671875 -0.38281,0 -0.74609,-0.09375 -1.29297,-0.347656 l 0.0742,-0.980469 c 0.42969,0.191406 0.80469,0.308593 1.00391,0.308593 0.12109,0 0.18359,-0.05078 0.24609,-0.199218 0.19141,-0.488282 0.34766,-1.507813 0.34766,-2.351563 0,-0.472656 -0.12891,-0.597656 -0.60938,-0.597656 h -0.53125 c -0.36328,1.558594 -0.94531,3.113281 -1.55859,4.175781 l -0.96094,-0.539062 c 0.61328,-1.042969 1.19532,-2.492188 1.46875,-3.636719 h -1.30468 V 37.5625 Z m 0,0"
         id="path2536" />
      <path
         fill-rule="nonzero"
         fill="#231f20"
         fill-opacity="1"
         d="m 203.64844,39.203125 c -0.28125,0 -0.59375,0.03516 -0.83594,0.105469 0,0.472656 0.0117,0.953125 0.043,1.269531 0.42187,-0.40625 0.79687,-0.886719 1.0664,-1.359375 -0.11328,-0.01563 -0.17968,-0.01563 -0.27343,-0.01563 m -2.75782,1.996094 c 0,0.304687 0.10938,0.457031 0.33204,0.457031 0.18359,0 0.35546,-0.07422 0.67968,-0.289062 -0.0664,-0.441407 -0.10156,-1.070313 -0.10156,-1.667969 -0.57031,0.359375 -0.91016,0.917969 -0.91016,1.5 m 1.10157,-4.265625 c 0.0156,-0.148438 0.0664,-0.523438 0.10156,-0.796875 l 1.04297,0.08984 -0.008,0.05078 c -0.0664,0.492187 -0.0664,0.523437 -0.082,0.65625 h 2.91407 v 0.917968 h -3.01563 l -0.008,0.05078 -0.0156,0.15625 -0.0156,0.191406 c -0.0117,0.109375 -0.0117,0.132812 -0.0195,0.230469 0.30859,-0.03906 0.53125,-0.05469 0.73047,-0.05469 1.64062,0 2.71484,0.828125 2.71484,2.109375 0,0.730469 -0.35156,1.359375 -0.97656,1.726563 -0.38672,0.230469 -0.88672,0.410156 -1.52344,0.535156 l -0.44922,-0.8125 c 1.32031,-0.261719 1.89844,-0.71875 1.89844,-1.507813 0,-0.371093 -0.17969,-0.734374 -0.45703,-0.941406 -0.59375,0.992188 -1.28906,1.746094 -2.15235,2.359375 -0.6289,0.441407 -1.05859,0.605469 -1.58984,0.605469 -0.73828,0 -1.14453,-0.441406 -1.14453,-1.265625 0,-1.070313 0.69922,-1.996094 1.89844,-2.496094 0.0156,-0.238281 0.0391,-0.539062 0.0664,-0.886719 h -1.65625 V 36.93358 Z m 0,0"
         id="path2537" />
      <path
         fill-rule="nonzero"
         fill="#231f20"
         fill-opacity="1"
         d="m 212.19922,41.125 c -0.28125,0 -0.51172,0.183594 -0.51172,0.398438 0,0.273437 0.34766,0.414062 1.02344,0.414062 0.0703,0 0.17578,-0.0078 0.30078,-0.01563 -0.14063,-0.53125 -0.41406,-0.796875 -0.8125,-0.796875 m 2.32031,-4.722656 0.48828,0.671875 c -0.91406,0.523437 -2.08594,1.25 -2.91797,1.820312 0.375,-0.140625 0.82032,-0.207031 1.31641,-0.207031 1.50781,0 2.46094,0.722656 2.46094,1.867188 0,1.398437 -1.16797,2.210937 -3.17188,2.210937 -1.25,0 -1.95703,-0.472656 -1.95703,-1.285156 0,-0.675781 0.64844,-1.199219 1.47656,-1.199219 0.83594,0 1.41016,0.480469 1.72266,1.433594 0.56641,-0.242188 0.84375,-0.621094 0.84375,-1.160156 0,-0.671876 -0.59375,-1.09375 -1.53125,-1.09375 -0.71875,0 -1.51563,0.164062 -1.98828,0.40625 -0.32813,0.171874 -0.70313,0.421874 -1.06641,0.726562 l -0.61328,-0.800781 c 0.98438,-0.78125 2.63281,-1.941407 3.52734,-2.476563 h -2.74218 v -0.914062 z m 0,0"
         id="path2538" />
      <path
         fill-rule="nonzero"
         fill="#231f20"
         fill-opacity="1"
         d="m 218.93359,41.582031 c 0,0.328125 0.28125,0.605469 0.60547,0.605469 0.33203,0 0.60547,-0.273438 0.60547,-0.605469 0,-0.324219 -0.27734,-0.605469 -0.60547,-0.605469 -0.32422,0 -0.60547,0.289063 -0.60547,0.605469 m 1.89844,0 c 0,0.703125 -0.58984,1.292969 -1.30078,1.292969 -0.69141,0 -1.27734,-0.589844 -1.27734,-1.292969 0,-0.699219 0.58593,-1.285156 1.29296,-1.285156 0.69532,0 1.28516,0.59375 1.28516,1.285156"
         id="path2539" />
      <path
         fill-rule="nonzero"
         fill="#231f20"
         fill-opacity="1"
         d="m 98.503906,88.109375 -2.050781,-2.820313 -0.769531,0.796876 v 2.023437 h -1.457032 v -6.625 h 1.457032 v 2.898437 L 98.375,81.484375 h 1.75781 l -2.69531,2.8125 2.82031,3.8125 z m 0,0"
         id="path2540" />
      <path
         fill-rule="nonzero"
         fill="#231f20"
         fill-opacity="1"
         d="m 109.00781,84.796875 c 0,-1.132813 -0.83203,-2.082031 -2.00781,-2.082031 -1.17187,0 -1.98437,0.929687 -1.98437,2.0625 v 0.01953 c 0,1.136719 0.83203,2.082031 2.0039,2.082031 1.17578,0 1.98828,-0.925781 1.98828,-2.0625 z M 107,88.222656 c -2.04297,0 -3.50781,-1.523437 -3.50781,-3.40625 v -0.01953 c 0,-1.882813 1.48437,-3.425781 3.52734,-3.425781 2.04688,0 3.51172,1.523437 3.51172,3.40625 v 0.01953 c 0,1.882813 -1.48437,3.425781 -3.53125,3.425781"
         id="path2541" />
      <path
         fill-rule="nonzero"
         fill="#231f20"
         fill-opacity="1"
         d="m 119.05859,84.796875 c 0,-1.171875 -0.80468,-1.996094 -2,-1.996094 h -1.125 v 3.992188 h 1.125 c 1.19532,0 2,-0.800781 2,-1.976563 z m -2,3.3125 h -2.58203 v -6.625 h 2.58203 c 2.08204,0 3.51954,1.429687 3.51954,3.292969 v 0.01953 c 0,1.863281 -1.4375,3.3125 -3.51954,3.3125"
         id="path2542" />
      <path
         fill-rule="nonzero"
         fill="#231f20"
         fill-opacity="1"
         d="m 129.75,84.796875 c 0,-1.132813 -0.83594,-2.082031 -2.00781,-2.082031 -1.17188,0 -1.98828,0.929687 -1.98828,2.0625 v 0.01953 c 0,1.136719 0.83203,2.082031 2.00781,2.082031 1.17578,0 1.98828,-0.925781 1.98828,-2.0625 z m -2.00781,3.425781 c -2.04297,0 -3.51172,-1.523437 -3.51172,-3.40625 v -0.01953 c 0,-1.882813 1.48828,-3.425781 3.53125,-3.425781 2.04297,0 3.51172,1.523437 3.51172,3.40625 v 0.01953 c 0,1.882813 -1.48828,3.425781 -3.53125,3.425781"
         id="path2543" />
      <path
         fill-rule="nonzero"
         fill="#231f20"
         fill-opacity="1"
         d="m 140.39453,88.109375 v -4.324219 l -1.86719,2.828125 h -0.0352 L 136.64453,83.8125 v 4.296875 h -1.42578 v -6.625 h 1.57031 l 1.73828,2.804687 1.74219,-2.804687 h 1.57031 v 6.625 z m 0,0"
         id="path2544" />
      <path
         fill-rule="nonzero"
         fill="#231f20"
         fill-opacity="1"
         d="m 151.30469,84.796875 c 0,-1.132813 -0.83594,-2.082031 -2.00782,-2.082031 -1.17578,0 -1.98828,0.929687 -1.98828,2.0625 v 0.01953 c 0,1.136719 0.83203,2.082031 2.00782,2.082031 1.17187,0 1.98828,-0.925781 1.98828,-2.0625 z m -2.00782,3.425781 c -2.04296,0 -3.51171,-1.523437 -3.51171,-3.40625 v -0.01953 c 0,-1.882813 1.48828,-3.425781 3.53125,-3.425781 2.04296,0 3.50781,1.523437 3.50781,3.40625 v 0.01953 c 0,1.882813 -1.48438,3.425781 -3.52735,3.425781"
         id="path2545" />
      <path
         fill-rule="nonzero"
         fill="#231f20"
         fill-opacity="1"
         d="m 166.90625,88.109375 -3.21094,-4.210937 v 4.210937 h -1.4375 v -6.625 h 1.34375 l 3.10547,4.082031 v -4.082031 h 1.4375 v 6.625 z m 0,0"
         id="path2546" />
      <path
         fill-rule="nonzero"
         fill="#231f20"
         fill-opacity="1"
         d="m 177.60547,84.796875 c 0,-1.132813 -0.83203,-2.082031 -2.00391,-2.082031 -1.17578,0 -1.98828,0.929687 -1.98828,2.0625 v 0.01953 c 0,1.136719 0.83203,2.082031 2.00781,2.082031 1.17188,0 1.98438,-0.925781 1.98438,-2.0625 z m -2.00391,3.425781 c -2.04687,0 -3.51172,-1.523437 -3.51172,-3.40625 v -0.01953 c 0,-1.882813 1.48438,-3.425781 3.53125,-3.425781 2.04297,0 3.50782,1.523437 3.50782,3.40625 v 0.01953 c 0,1.882813 -1.48438,3.425781 -3.52735,3.425781"
         id="path2547" />
      <path
         fill-rule="nonzero"
         fill="#231f20"
         fill-opacity="1"
         d="m 192.83984,88.109375 -2.05468,-2.820313 -0.76563,0.796876 v 2.023437 h -1.45703 v -6.625 h 1.45703 v 2.898437 l 2.6875,-2.898437 h 1.76172 l -2.69922,2.8125 2.82031,3.8125 z m 0,0"
         id="path2548" />
      <path
         fill-rule="nonzero"
         fill="#231f20"
         fill-opacity="1"
         d="m 200.88281,88.214844 c -1.78125,0 -2.86719,-0.996094 -2.86719,-2.945313 v -3.785156 h 1.45704 v 3.75 c 0,1.078125 0.53906,1.636719 1.42968,1.636719 0.88672,0 1.42578,-0.539063 1.42578,-1.589844 v -3.796875 h 1.46094 v 3.738281 c 0,2.007813 -1.1289,2.992188 -2.90625,2.992188"
         id="path2549" />
      <path
         fill-rule="nonzero"
         fill="#231f20"
         fill-opacity="1"
         d="m 212.56641,88.109375 -3.20704,-4.210937 v 4.210937 h -1.4375 v -6.625 h 1.34375 l 3.10157,4.082031 v -4.082031 h 1.4414 v 6.625 z m 0,0"
         id="path2550" />
      <path
         fill-rule="nonzero"
         fill="#231f20"
         fill-opacity="1"
         d="m 218.11328,81.484375 h 1.45703 v 6.625 h -1.45703 z m 0,0"
         id="path2551" />
      <path
         fill-rule="nonzero"
         fill="#231f20"
         fill-opacity="1"
         d="m 95.476562,56.355469 h 13.351568 c 0.625,0 1.1289,-0.507813 1.1289,-1.132813 v -1.207031 c 0,-0.625 -0.5039,-1.132813 -1.1289,-1.132813 H 95.476562 c -0.625,0 -1.128906,0.507813 -1.128906,1.132813 v 1.207031 c 0,0.625 0.503906,1.132813 1.128906,1.132813"
         id="path2552" />
      <path
         fill-rule="nonzero"
         fill="#231f20"
         fill-opacity="1"
         d="M 109.98828,70.117188 H 98.074219 c -1.261719,0 -1.835938,-0.160157 -2.015625,-1.691407 C 96,67.917969 95.710938,67.660156 95.203125,67.660156 h -1.816406 c -0.230469,0 -0.425781,0.07813 -0.566407,0.226563 -0.164062,0.175781 -0.242187,0.4375 -0.222656,0.753906 0.109375,1.847656 0.972656,4.949219 5.476563,4.949219 h 11.914061 c 0.625,0 1.13281,-0.507813 1.13281,-1.132813 V 71.25 c 0,-0.625 -0.50781,-1.132812 -1.13281,-1.132812"
         id="path2553" />
      <path
         fill-rule="nonzero"
         fill="#231f20"
         fill-opacity="1"
         d="m 134.41016,54.015625 c 0,1.09375 -0.88672,1.980469 -1.98047,1.980469 -1.08985,0 -1.97657,-0.886719 -1.97657,-1.980469 0,-1.09375 0.88672,-1.976563 1.97657,-1.976563 1.09375,0 1.98047,0.882813 1.98047,1.976563"
         id="path2554" />
      <path
         fill-rule="nonzero"
         fill="#231f20"
         fill-opacity="1"
         d="m 139.00391,54.015625 c 0,1.09375 -0.88672,1.980469 -1.98047,1.980469 -1.08985,0 -1.97657,-0.886719 -1.97657,-1.980469 0,-1.09375 0.88672,-1.976563 1.97657,-1.976563 1.09375,0 1.98047,0.882813 1.98047,1.976563"
         id="path2555" />
      <path
         fill-rule="nonzero"
         fill="#231f20"
         fill-opacity="1"
         d="m 199.67969,51.941406 c -1.32813,0 -2.41407,1.085938 -2.41407,2.414063 v 14.199219 c 0,1.332031 1.08594,2.414062 2.41407,2.414062 h 15.15625 c 1.33203,0 2.41406,-1.082031 2.41406,-2.414062 V 54.355469 c 0,-1.328125 -1.08203,-2.414063 -2.41406,-2.414063 z m 15.15625,22.25 h -15.15625 c -3.10547,0 -5.63282,-2.53125 -5.63282,-5.636718 V 54.355469 c 0,-3.105469 2.52735,-5.632813 5.63282,-5.632813 h 15.15625 c 3.10547,0 5.63281,2.527344 5.63281,5.632813 v 14.199219 c 0,3.105468 -2.52734,5.636718 -5.63281,5.636718"
         id="path2556" />
      <path
         fill-rule="nonzero"
         fill="#231f20"
         fill-opacity="1"
         d="m 213.74609,66.085938 h -5.01953 v -3.496094 h 3.75 c 0.55469,0 1.00391,-0.449219 1.00391,-1.003906 v -1.007813 c 0,-0.550781 -0.44922,-1.003906 -1.00391,-1.003906 h -3.75 v -2.695313 h 4.75391 c 0.55469,0 1.00781,-0.453125 1.00781,-1.003906 v -1.007812 c 0,-0.554688 -0.45312,-1.003907 -1.00781,-1.003907 h -12.72656 c -0.55469,0 -1.00782,0.449219 -1.00782,1.003907 V 55.875 c 0,0.550781 0.45313,1.003906 1.00782,1.003906 h 4.95703 v 2.695313 h -3.95313 c -0.55078,0 -1.0039,0.453125 -1.0039,1.003906 v 1.007813 c 0,0.554687 0.45312,1.003906 1.0039,1.003906 h 3.95313 v 3.496094 h -5.22266 c -0.55469,0 -1.00781,0.453124 -1.00781,1.003906 v 1.007812 c 0,0.554688 0.45312,1.007813 1.00781,1.007813 h 13.25781 c 0.55469,0 1.00782,-0.453125 1.00782,-1.007813 v -1.007812 c 0,-0.550782 -0.45313,-1.003906 -1.00782,-1.003906"
         id="path2557" />
      <path
         fill-rule="nonzero"
         fill="#231f20"
         fill-opacity="1"
         d="m 129.07422,58.648438 c 1.41797,0.269531 1.89844,1.078124 1.70703,1.953124 -0.19922,0.910157 -1.07031,1.199219 -2.01953,1.132813 -1.03906,-0.07422 -2.76953,-0.910156 -3.22266,-2.417969 1.15625,-0.636718 2.4961,-0.859375 3.53516,-0.667968 m -5.63672,12.128906 c -2.625,-0.320313 -4.13281,-1.9375 -4.13281,-4.4375 0,-2.261719 1.53515,-3.992188 2.44922,-4.820313 0.28515,-0.257812 0.58593,-0.503906 0.89843,-0.730469 0.37891,0.589844 0.80079,1.101563 1.26954,1.53125 1.32031,1.222657 2.98437,1.789063 4.82031,1.636719 2.67578,-0.21875 4.08593,-2.144531 4.10156,-3.9375 0.0117,-1.828125 -1.41016,-3.929687 -4.5625,-4.238281 -1.25,-0.121094 -2.64062,0.08594 -4.02344,0.566406 -0.32031,-1.246094 -0.51562,-2.722656 -0.59375,-4.375 -0.0352,-0.6875 -0.20312,-0.941406 -0.84375,-0.941406 h -1.64062 c -0.45703,0 -0.76563,0.234375 -0.7461,0.765625 0.0977,2.296875 0.375,4.308594 0.88672,6 -0.60547,0.398437 -1.1875,0.84375 -1.73047,1.335937 -2.25781,2.050782 -3.5039,4.609376 -3.5039,7.207032 0,4.121094 2.73437,7.117187 6.96094,7.632812 0.98046,0.117188 2.32421,0.203125 3.80468,0.203125 1.70703,0 3.59766,-0.117187 5.33203,-0.417969 0.64844,-0.113281 0.78125,-0.554687 0.78125,-1.109374 v -1.421876 c 0,-0.449218 -0.2539,-0.847656 -0.91015,-0.714843 -2.82813,0.566406 -6.5625,0.515625 -8.61719,0.265625"
         id="path2558" />
      <path
         fill-rule="nonzero"
         fill="#231f20"
         fill-opacity="1"
         d="m 161.33203,65.261719 h -1.75781 c -0.35547,0 -0.72656,0.191406 -0.75781,0.738281 -0.20704,3.828125 -2.08204,4.582031 -4.16797,4.777344 -1.6875,0.15625 -2.96094,-0.144532 -3.78516,-0.890625 -0.81641,-0.746094 -1.23047,-1.972657 -1.23047,-3.648438 v -2.472656 h 7.14844 c 0.55469,0 1.00391,-0.453125 1.00391,-1.003906 v -1.210938 c 0,-0.550781 -0.44922,-1.003906 -1.00391,-1.003906 h -7.14844 v -3.3125 h 6.39063 c 0.55468,0 1.00781,-0.453125 1.00781,-1.003906 v -1.210938 c 0,-0.550781 -0.45313,-1.003906 -1.00781,-1.003906 h -6.39063 v -1.136719 c 0,-0.554687 -0.45312,-1.007812 -1.00781,-1.007812 h -1.20703 c -0.55078,0 -1.00391,0.453125 -1.00391,1.007812 v 1.136719 h -3.32422 c -0.55078,0 -1.0039,0.453125 -1.0039,1.003906 v 1.210938 c 0,0.550781 0.45312,1.003906 1.0039,1.003906 h 3.32422 v 3.3125 h -3.32422 c -0.55078,0 -1.0039,0.453125 -1.0039,1.003906 v 1.210938 c 0,0.550781 0.45312,1.003906 1.0039,1.003906 h 3.32422 v 2.472656 c 0,2.582031 0.78906,4.664063 2.28125,6.027344 1.28125,1.164063 3.04688,1.769531 5.14844,1.769531 0.35937,0 0.72656,-0.01953 1.10156,-0.05469 3.16797,-0.292969 6.70313,-1.945313 7.08203,-7.847657 0.0312,-0.488281 -0.10156,-0.871093 -0.69531,-0.871093"
         id="path2559" />
      <path
         fill-rule="nonzero"
         fill="#231f20"
         fill-opacity="1"
         d="m 186.23828,56.203125 c -1.9375,-1.984375 -4.78516,-2.988281 -8.46484,-2.988281 -6.83203,0 -10.91016,3.9375 -10.91016,10.539062 0,6.167969 3.25,8.359375 6.03125,8.359375 1.58203,0 5.26563,-0.652343 5.26563,-6.675781 v -5.09375 c -0.004,-0.546875 -0.45704,-0.992188 -1.00391,-0.992188 h -1.20703 c -0.55078,0 -1,0.445313 -1.00781,0.992188 v 5.09375 c 0,3.453125 -1.38282,3.453125 -2.04688,3.453125 -1.73437,0 -2.8125,-1.96875 -2.8125,-5.136719 0,-4.859375 2.58594,-7.320312 7.69141,-7.320312 2.78125,0 4.85156,0.679687 6.16015,2.019531 1.22266,1.246094 1.8086,3.132813 1.75,5.601563 -0.10547,4.539062 -1.67187,5.910156 -3.35547,6.320312 -0.57812,0.140625 -0.92187,0.386719 -0.92187,1.050781 v 1.195313 c 0,0.644531 0.43359,1.089844 1.14062,0.976562 2.78907,-0.445312 6.19141,-2.488281 6.35547,-9.464844 0.082,-3.371093 -0.8164,-6.035156 -2.66406,-7.929687"
         id="path2560" />
      <path
         fill-rule="nonzero"
         fill="#231f20"
         fill-opacity="1"
         d="m 213.97656,64.722656 c 0,0.957032 -0.77734,1.730469 -1.73047,1.730469 -0.95703,0 -1.73437,-0.773437 -1.73437,-1.730469 0,-0.957031 0.77734,-1.730468 1.73437,-1.730468 0.95313,0 1.73047,0.773437 1.73047,1.730468"
         id="path2561" />
    </g>
  </g>
</svg>
